<svg xmlns="http://www.w3.org/2000/svg" xmlns:xlink="http://www.w3.org/1999/xlink" width="1366" zoomAndPan="magnify" viewBox="0 0 1024.5 576" height="768" preserveAspectRatio="xMidYMid meet" version="1.0"><defs><g/><clipPath id="70d9d46bfe"><path d="M 306.257812 5.382812 L 767.386719 5.382812 L 767.386719 465.675781 L 306.257812 465.675781 Z M 306.257812 5.382812 " clip-rule="nonzero"/></clipPath><clipPath id="65af891449"><path d="M 553.714844 94.148438 C 563.449219 80.652344 575.328125 78.675781 588.390625 83.015625 C 579.394531 94.773438 568.265625 99.839844 553.714844 94.148438 M 602.414062 79.089844 C 623.722656 61.113281 643.847656 62.726562 663.320312 75.089844 C 643.914062 90.546875 623.761719 94.273438 602.414062 79.089844 Z M 676.097656 75.28125 C 710.414062 74.242188 725.578125 91.636719 730.152344 119.203125 C 699.046875 118.742188 679.175781 106.289062 676.097656 75.28125 Z M 733.34375 127.703125 C 745.695312 138.851562 746.367188 150.875 740.628906 163.382812 C 729.921875 153.160156 726.097656 141.550781 733.34375 127.703125 Z M 622.285156 121.589844 C 637.460938 114.769531 648.738281 118.996094 657.882812 129.285156 C 644.210938 134.96875 632.039062 133.796875 622.285156 121.589844 Z M 671.984375 132.898438 C 699.429688 127.984375 716.054688 139.445312 726.734375 159.886719 C 702.199219 163.570312 682.882812 156.71875 671.984375 132.898438 Z M 737.707031 166.441406 C 767.941406 182.699219 772.375 205.34375 762.554688 231.507812 C 735.84375 215.554688 724.863281 194.832031 737.707031 166.441406 Z M 761.066406 240.464844 C 766.191406 256.292969 760.761719 267.042969 749.539062 275.007812 C 745.378906 260.800781 747.871094 248.832031 761.066406 240.464844 Z M 576.410156 118.050781 C 590.746094 109.609375 602.417969 112.566406 612.640625 121.789062 C 599.675781 128.945312 587.453125 129.113281 576.410156 118.050781 Z M 667.945312 179.640625 C 684.496094 181.320312 692.152344 190.621094 694.925781 204.105469 C 680.246094 202.191406 670.289062 195.085938 667.945312 179.640625 Z M 705.332031 214.28125 C 731.554688 223.75 740.222656 241.988281 739.253906 265.027344 C 716.164062 255.953125 702.859375 240.363281 705.332031 214.28125 Z M 745.476562 276.195312 C 763.53125 305.390625 756.050781 327.21875 734.464844 344.964844 C 719.308594 317.792969 720.160156 294.359375 745.476562 276.195312 Z M 728.699219 351.980469 C 725.21875 368.25 715.144531 374.84375 701.441406 376.128906 C 704.941406 361.746094 713.085938 352.628906 728.699219 351.980469 Z M 629.988281 153.640625 C 646.621094 153.492188 655.253906 161.894531 659.492188 174.988281 C 644.6875 174.703125 634.019531 168.738281 629.988281 153.640625 Z M 678.464844 252.742188 C 691.957031 262.472656 693.9375 274.355469 689.597656 287.417969 C 677.839844 278.421875 672.769531 267.292969 678.464844 252.742188 Z M 693.523438 301.4375 C 711.496094 322.75 709.886719 342.878906 697.523438 362.347656 C 682.066406 342.941406 678.339844 322.789062 693.523438 301.4375 Z M 697.328125 375.125 C 698.367188 409.441406 680.976562 424.605469 653.410156 429.179688 C 653.867188 398.070312 666.324219 378.199219 697.328125 375.125 Z M 644.90625 432.367188 C 633.761719 444.71875 621.738281 445.390625 609.226562 439.65625 C 619.449219 428.949219 631.0625 425.125 644.90625 432.367188 Z M 658.589844 211.246094 C 673.070312 219.4375 676.34375 231.027344 673.46875 244.488281 C 660.792969 236.84375 654.53125 226.339844 658.589844 211.246094 Z M 651.023438 321.3125 C 657.84375 336.484375 653.613281 347.765625 643.328125 356.90625 C 637.640625 343.238281 638.816406 331.066406 651.023438 321.3125 Z M 639.714844 371.011719 C 644.625 398.457031 633.164062 415.082031 612.722656 425.761719 C 609.042969 401.226562 615.890625 381.910156 639.714844 371.011719 Z M 606.167969 436.730469 C 589.910156 466.96875 567.265625 471.40625 541.101562 461.582031 C 557.054688 434.871094 577.78125 423.886719 606.167969 436.730469 Z M 532.148438 460.097656 C 516.320312 465.21875 505.566406 459.789062 497.605469 448.566406 C 511.8125 444.402344 523.777344 446.894531 532.148438 460.097656 Z M 654.558594 275.4375 C 663.003906 289.773438 660.042969 301.445312 650.820312 311.667969 C 643.667969 298.707031 643.5 286.480469 654.558594 275.4375 Z M 592.96875 366.972656 C 591.289062 383.523438 581.988281 391.179688 568.507812 393.949219 C 570.417969 379.269531 577.523438 369.316406 592.96875 366.972656 Z M 558.328125 404.359375 C 548.859375 430.582031 530.625 439.25 507.578125 438.277344 C 516.660156 415.1875 532.25 401.882812 558.328125 404.359375 Z M 496.417969 444.5 C 467.21875 462.558594 445.390625 455.078125 427.644531 433.492188 C 454.8125 418.335938 478.253906 419.183594 496.417969 444.5 Z M 420.632812 427.726562 C 404.359375 424.25 397.769531 414.167969 396.480469 400.46875 C 410.867188 403.96875 419.980469 412.109375 420.632812 427.726562 Z M 618.96875 329.011719 C 619.117188 345.648438 610.71875 354.277344 597.621094 358.519531 C 597.902344 343.71875 603.871094 333.046875 618.96875 329.011719 Z M 519.871094 377.492188 C 510.136719 390.984375 498.253906 392.960938 485.195312 388.621094 C 494.191406 376.863281 505.316406 371.796875 519.871094 377.492188 Z M 471.171875 392.546875 C 449.863281 410.527344 429.738281 408.914062 410.261719 396.546875 C 429.671875 381.089844 449.824219 377.367188 471.171875 392.546875 Z M 397.484375 396.355469 C 363.167969 397.394531 348.003906 380.003906 343.433594 352.4375 C 374.539062 352.894531 394.414062 365.347656 397.484375 396.355469 Z M 340.242188 343.933594 C 327.890625 332.789062 327.214844 320.761719 332.957031 308.25 C 343.664062 318.476562 347.488281 330.085938 340.242188 343.933594 Z M 561.363281 357.617188 C 553.171875 372.097656 541.582031 375.371094 528.121094 372.496094 C 535.769531 359.820312 546.273438 353.558594 561.363281 357.617188 Z M 451.300781 350.050781 C 436.125 356.867188 424.847656 352.636719 415.707031 342.351562 C 429.375 336.667969 441.542969 337.839844 451.300781 350.050781 Z M 401.601562 338.738281 C 374.152344 343.65625 357.53125 332.195312 346.851562 311.75 C 371.386719 308.070312 390.703125 314.917969 401.601562 338.738281 Z M 335.882812 305.191406 C 305.640625 288.933594 301.207031 266.292969 311.03125 240.132812 C 337.742188 256.082031 348.722656 276.804688 335.882812 305.191406 Z M 312.519531 231.175781 C 307.390625 215.347656 312.820312 204.59375 324.046875 196.628906 C 328.207031 210.835938 325.714844 222.804688 312.519531 231.175781 Z M 497.171875 353.582031 C 482.839844 362.027344 471.164062 359.070312 460.945312 349.847656 C 473.90625 342.695312 486.132812 342.523438 497.171875 353.582031 Z M 405.636719 292 C 389.085938 290.316406 381.433594 281.015625 378.660156 267.535156 C 393.339844 269.445312 403.292969 276.546875 405.636719 292 Z M 368.253906 257.351562 C 342.027344 247.890625 333.363281 229.652344 334.332031 206.609375 C 357.421875 215.683594 370.722656 231.273438 368.253906 257.351562 Z M 328.113281 195.441406 C 310.050781 166.242188 317.53125 144.417969 339.121094 126.675781 C 354.277344 153.84375 353.425781 177.28125 328.113281 195.441406 Z M 344.886719 119.65625 C 348.363281 103.390625 358.4375 96.789062 372.144531 95.503906 C 368.644531 109.890625 360.5 119.007812 344.886719 119.65625 Z M 443.601562 317.992188 C 426.964844 318.144531 418.332031 309.742188 414.09375 296.648438 C 428.890625 296.933594 439.566406 302.898438 443.601562 317.992188 Z M 395.121094 218.894531 C 381.625 209.164062 379.648438 197.28125 383.988281 184.21875 C 395.746094 193.214844 400.8125 204.34375 395.121094 218.894531 Z M 380.066406 170.199219 C 362.082031 148.886719 363.699219 128.761719 376.066406 109.289062 C 391.519531 128.695312 395.246094 148.851562 380.066406 170.199219 Z M 376.257812 96.511719 C 375.21875 62.195312 392.609375 47.03125 420.175781 42.460938 C 419.714844 73.566406 407.261719 93.441406 376.257812 96.511719 Z M 428.679688 39.269531 C 439.820312 26.917969 451.847656 26.242188 464.359375 31.980469 C 454.136719 42.6875 442.523438 46.511719 428.679688 39.269531 Z M 415 260.390625 C 400.515625 252.199219 397.242188 240.609375 400.117188 227.148438 C 412.789062 234.792969 419.054688 245.296875 415 260.390625 Z M 422.5625 150.328125 C 415.742188 135.15625 419.972656 123.875 430.257812 114.734375 C 435.945312 128.398438 434.769531 140.574219 422.5625 150.328125 Z M 433.875 100.628906 C 428.957031 73.183594 440.417969 56.558594 460.859375 45.878906 C 464.542969 70.414062 457.691406 89.730469 433.875 100.628906 Z M 467.417969 34.910156 C 483.675781 4.667969 506.316406 0.234375 532.480469 10.058594 C 516.527344 36.765625 495.804688 47.75 467.417969 34.910156 Z M 541.4375 11.542969 C 557.261719 6.421875 568.015625 11.851562 575.980469 23.074219 C 561.777344 27.238281 549.804688 24.742188 541.4375 11.542969 Z M 419.03125 196.203125 C 410.582031 181.867188 413.542969 170.191406 422.761719 159.972656 C 429.914062 172.933594 430.085938 185.160156 419.03125 196.203125 Z M 480.609375 104.667969 C 482.292969 88.113281 491.59375 80.460938 505.074219 77.6875 C 503.164062 92.367188 496.0625 102.324219 480.609375 104.667969 Z M 515.257812 67.28125 C 524.722656 41.054688 542.960938 32.386719 566.003906 33.359375 C 556.921875 56.449219 541.332031 69.75 515.257812 67.28125 Z M 577.167969 27.140625 C 606.367188 9.078125 628.191406 16.558594 645.933594 38.148438 C 618.769531 53.304688 595.328125 52.453125 577.167969 27.140625 Z M 652.953125 43.914062 C 669.21875 47.390625 675.816406 57.46875 677.105469 71.171875 C 662.71875 67.671875 653.601562 59.53125 652.953125 43.914062 Z M 454.617188 142.625 C 454.46875 125.992188 462.871094 117.359375 475.964844 113.117188 C 475.679688 127.917969 469.710938 138.59375 454.617188 142.625 Z M 512.21875 114.019531 C 520.410156 99.539062 532 96.265625 545.460938 99.140625 C 537.816406 111.820312 527.3125 118.078125 512.21875 114.019531 Z M 512.21875 114.019531 " clip-rule="nonzero"/></clipPath><linearGradient x1="-12.168072" gradientTransform="matrix(0.15792, 0, 0, 0.15792, 301.205916, 0.234112)" y1="1444.761027" x2="2996.053251" gradientUnits="userSpaceOnUse" y2="1538.849163" id="1f704d0760"><stop stop-opacity="1" stop-color="rgb(41.569519%, 55.688477%, 30.589294%)" offset="0"/><stop stop-opacity="1" stop-color="rgb(41.569519%, 55.688477%, 30.589294%)" offset="0.0302754"/><stop stop-opacity="1" stop-color="rgb(41.569519%, 55.688477%, 30.589294%)" offset="0.125"/><stop stop-opacity="1" stop-color="rgb(41.569519%, 55.688477%, 30.589294%)" offset="0.1875"/><stop stop-opacity="1" stop-color="rgb(41.569519%, 55.688477%, 30.589294%)" offset="0.21875"/><stop stop-opacity="1" stop-color="rgb(41.569519%, 55.688477%, 30.589294%)" offset="0.234375"/><stop stop-opacity="1" stop-color="rgb(41.630554%, 55.74646%, 30.633545%)" offset="0.242188"/><stop stop-opacity="1" stop-color="rgb(41.889954%, 55.987549%, 30.82428%)" offset="0.246094"/><stop stop-opacity="1" stop-color="rgb(42.088318%, 56.17218%, 30.969238%)" offset="0.25"/><stop stop-opacity="1" stop-color="rgb(42.285156%, 56.355286%, 31.114197%)" offset="0.253906"/><stop stop-opacity="1" stop-color="rgb(42.483521%, 56.539917%, 31.259155%)" offset="0.257812"/><stop stop-opacity="1" stop-color="rgb(42.681885%, 56.723022%, 31.404114%)" offset="0.261719"/><stop stop-opacity="1" stop-color="rgb(42.880249%, 56.907654%, 31.549072%)" offset="0.265625"/><stop stop-opacity="1" stop-color="rgb(43.077087%, 57.090759%, 31.694031%)" offset="0.269531"/><stop stop-opacity="1" stop-color="rgb(43.275452%, 57.275391%, 31.838989%)" offset="0.273438"/><stop stop-opacity="1" stop-color="rgb(43.473816%, 57.458496%, 31.983948%)" offset="0.277344"/><stop stop-opacity="1" stop-color="rgb(43.67218%, 57.643127%, 32.128906%)" offset="0.28125"/><stop stop-opacity="1" stop-color="rgb(43.869019%, 57.827759%, 32.273865%)" offset="0.285156"/><stop stop-opacity="1" stop-color="rgb(44.067383%, 58.01239%, 32.418823%)" offset="0.289062"/><stop stop-opacity="1" stop-color="rgb(44.264221%, 58.195496%, 32.563782%)" offset="0.292969"/><stop stop-opacity="1" stop-color="rgb(44.462585%, 58.380127%, 32.70874%)" offset="0.296875"/><stop stop-opacity="1" stop-color="rgb(44.66095%, 58.563232%, 32.853699%)" offset="0.300781"/><stop stop-opacity="1" stop-color="rgb(44.859314%, 58.747864%, 32.998657%)" offset="0.304688"/><stop stop-opacity="1" stop-color="rgb(45.056152%, 58.930969%, 33.143616%)" offset="0.308594"/><stop stop-opacity="1" stop-color="rgb(45.254517%, 59.115601%, 33.288574%)" offset="0.3125"/><stop stop-opacity="1" stop-color="rgb(45.452881%, 59.298706%, 33.433533%)" offset="0.316406"/><stop stop-opacity="1" stop-color="rgb(45.651245%, 59.483337%, 33.578491%)" offset="0.320312"/><stop stop-opacity="1" stop-color="rgb(45.848083%, 59.666443%, 33.72345%)" offset="0.324219"/><stop stop-opacity="1" stop-color="rgb(46.046448%, 59.851074%, 33.868408%)" offset="0.328125"/><stop stop-opacity="1" stop-color="rgb(46.244812%, 60.03418%, 34.013367%)" offset="0.332031"/><stop stop-opacity="1" stop-color="rgb(46.443176%, 60.218811%, 34.158325%)" offset="0.335938"/><stop stop-opacity="1" stop-color="rgb(46.640015%, 60.403442%, 34.303284%)" offset="0.339844"/><stop stop-opacity="1" stop-color="rgb(46.838379%, 60.588074%, 34.448242%)" offset="0.34375"/><stop stop-opacity="1" stop-color="rgb(47.035217%, 60.771179%, 34.593201%)" offset="0.347656"/><stop stop-opacity="1" stop-color="rgb(47.233582%, 60.955811%, 34.738159%)" offset="0.351562"/><stop stop-opacity="1" stop-color="rgb(47.431946%, 61.138916%, 34.883118%)" offset="0.355469"/><stop stop-opacity="1" stop-color="rgb(47.63031%, 61.323547%, 35.028076%)" offset="0.359375"/><stop stop-opacity="1" stop-color="rgb(47.827148%, 61.506653%, 35.173035%)" offset="0.363281"/><stop stop-opacity="1" stop-color="rgb(48.025513%, 61.691284%, 35.317993%)" offset="0.367187"/><stop stop-opacity="1" stop-color="rgb(48.223877%, 61.87439%, 35.462952%)" offset="0.371094"/><stop stop-opacity="1" stop-color="rgb(48.422241%, 62.059021%, 35.60791%)" offset="0.375"/><stop stop-opacity="1" stop-color="rgb(48.61908%, 62.242126%, 35.752869%)" offset="0.378906"/><stop stop-opacity="1" stop-color="rgb(48.817444%, 62.426758%, 35.897827%)" offset="0.382812"/><stop stop-opacity="1" stop-color="rgb(49.014282%, 62.609863%, 36.042786%)" offset="0.386719"/><stop stop-opacity="1" stop-color="rgb(49.212646%, 62.794495%, 36.187744%)" offset="0.390625"/><stop stop-opacity="1" stop-color="rgb(49.411011%, 62.979126%, 36.332703%)" offset="0.394531"/><stop stop-opacity="1" stop-color="rgb(49.609375%, 63.163757%, 36.477661%)" offset="0.398438"/><stop stop-opacity="1" stop-color="rgb(49.806213%, 63.346863%, 36.62262%)" offset="0.402344"/><stop stop-opacity="1" stop-color="rgb(50.004578%, 63.531494%, 36.767578%)" offset="0.40625"/><stop stop-opacity="1" stop-color="rgb(50.202942%, 63.7146%, 36.912537%)" offset="0.410156"/><stop stop-opacity="1" stop-color="rgb(50.401306%, 63.899231%, 37.057495%)" offset="0.414062"/><stop stop-opacity="1" stop-color="rgb(50.598145%, 64.082336%, 37.202454%)" offset="0.417969"/><stop stop-opacity="1" stop-color="rgb(50.796509%, 64.266968%, 37.347412%)" offset="0.421875"/><stop stop-opacity="1" stop-color="rgb(50.993347%, 64.450073%, 37.492371%)" offset="0.425781"/><stop stop-opacity="1" stop-color="rgb(51.191711%, 64.634705%, 37.637329%)" offset="0.429687"/><stop stop-opacity="1" stop-color="rgb(51.390076%, 64.81781%, 37.782288%)" offset="0.433594"/><stop stop-opacity="1" stop-color="rgb(51.58844%, 65.002441%, 37.927246%)" offset="0.4375"/><stop stop-opacity="1" stop-color="rgb(51.785278%, 65.185547%, 38.072205%)" offset="0.441406"/><stop stop-opacity="1" stop-color="rgb(51.983643%, 65.370178%, 38.217163%)" offset="0.445312"/><stop stop-opacity="1" stop-color="rgb(52.182007%, 65.55481%, 38.362122%)" offset="0.449219"/><stop stop-opacity="1" stop-color="rgb(52.380371%, 65.739441%, 38.50708%)" offset="0.453125"/><stop stop-opacity="1" stop-color="rgb(52.577209%, 65.922546%, 38.652039%)" offset="0.457031"/><stop stop-opacity="1" stop-color="rgb(52.775574%, 66.107178%, 38.796997%)" offset="0.460937"/><stop stop-opacity="1" stop-color="rgb(52.972412%, 66.290283%, 38.941956%)" offset="0.464844"/><stop stop-opacity="1" stop-color="rgb(53.170776%, 66.474915%, 39.086914%)" offset="0.46875"/><stop stop-opacity="1" stop-color="rgb(53.369141%, 66.65802%, 39.231873%)" offset="0.472656"/><stop stop-opacity="1" stop-color="rgb(53.567505%, 66.842651%, 39.376831%)" offset="0.476562"/><stop stop-opacity="1" stop-color="rgb(53.764343%, 67.025757%, 39.52179%)" offset="0.480469"/><stop stop-opacity="1" stop-color="rgb(53.962708%, 67.210388%, 39.666748%)" offset="0.484375"/><stop stop-opacity="1" stop-color="rgb(54.161072%, 67.393494%, 39.811707%)" offset="0.488281"/><stop stop-opacity="1" stop-color="rgb(54.359436%, 67.578125%, 39.956665%)" offset="0.492188"/><stop stop-opacity="1" stop-color="rgb(54.556274%, 67.76123%, 40.101624%)" offset="0.496094"/><stop stop-opacity="1" stop-color="rgb(54.754639%, 67.945862%, 40.246582%)" offset="0.5"/><stop stop-opacity="1" stop-color="rgb(54.953003%, 68.130493%, 40.391541%)" offset="0.503906"/><stop stop-opacity="1" stop-color="rgb(55.151367%, 68.315125%, 40.536499%)" offset="0.507812"/><stop stop-opacity="1" stop-color="rgb(55.348206%, 68.49823%, 40.681458%)" offset="0.511719"/><stop stop-opacity="1" stop-color="rgb(55.54657%, 68.682861%, 40.826416%)" offset="0.515625"/><stop stop-opacity="1" stop-color="rgb(55.743408%, 68.865967%, 40.971375%)" offset="0.519531"/><stop stop-opacity="1" stop-color="rgb(55.941772%, 69.050598%, 41.116333%)" offset="0.523438"/><stop stop-opacity="1" stop-color="rgb(56.140137%, 69.233704%, 41.261292%)" offset="0.527344"/><stop stop-opacity="1" stop-color="rgb(56.338501%, 69.418335%, 41.40625%)" offset="0.53125"/><stop stop-opacity="1" stop-color="rgb(56.535339%, 69.60144%, 41.551208%)" offset="0.535156"/><stop stop-opacity="1" stop-color="rgb(56.733704%, 69.786072%, 41.696167%)" offset="0.539062"/><stop stop-opacity="1" stop-color="rgb(56.932068%, 69.969177%, 41.841125%)" offset="0.542969"/><stop stop-opacity="1" stop-color="rgb(57.130432%, 70.153809%, 41.986084%)" offset="0.546875"/><stop stop-opacity="1" stop-color="rgb(57.327271%, 70.336914%, 42.131042%)" offset="0.550781"/><stop stop-opacity="1" stop-color="rgb(57.525635%, 70.521545%, 42.276001%)" offset="0.554687"/><stop stop-opacity="1" stop-color="rgb(57.722473%, 70.706177%, 42.420959%)" offset="0.558594"/><stop stop-opacity="1" stop-color="rgb(57.920837%, 70.890808%, 42.565918%)" offset="0.5625"/><stop stop-opacity="1" stop-color="rgb(58.119202%, 71.073914%, 42.710876%)" offset="0.566406"/><stop stop-opacity="1" stop-color="rgb(58.317566%, 71.258545%, 42.855835%)" offset="0.570312"/><stop stop-opacity="1" stop-color="rgb(58.514404%, 71.44165%, 43.000793%)" offset="0.574219"/><stop stop-opacity="1" stop-color="rgb(58.712769%, 71.626282%, 43.145752%)" offset="0.578125"/><stop stop-opacity="1" stop-color="rgb(58.911133%, 71.809387%, 43.29071%)" offset="0.582031"/><stop stop-opacity="1" stop-color="rgb(59.109497%, 71.994019%, 43.435669%)" offset="0.585937"/><stop stop-opacity="1" stop-color="rgb(59.306335%, 72.177124%, 43.580627%)" offset="0.589844"/><stop stop-opacity="1" stop-color="rgb(59.5047%, 72.361755%, 43.725586%)" offset="0.59375"/><stop stop-opacity="1" stop-color="rgb(59.701538%, 72.544861%, 43.870544%)" offset="0.597656"/><stop stop-opacity="1" stop-color="rgb(59.899902%, 72.729492%, 44.015503%)" offset="0.601562"/><stop stop-opacity="1" stop-color="rgb(60.098267%, 72.912598%, 44.160461%)" offset="0.605469"/><stop stop-opacity="1" stop-color="rgb(60.296631%, 73.097229%, 44.30542%)" offset="0.609375"/><stop stop-opacity="1" stop-color="rgb(60.493469%, 73.28186%, 44.450378%)" offset="0.613281"/><stop stop-opacity="1" stop-color="rgb(60.691833%, 73.466492%, 44.595337%)" offset="0.617188"/><stop stop-opacity="1" stop-color="rgb(60.890198%, 73.649597%, 44.740295%)" offset="0.621094"/><stop stop-opacity="1" stop-color="rgb(61.088562%, 73.834229%, 44.885254%)" offset="0.625"/><stop stop-opacity="1" stop-color="rgb(61.2854%, 74.017334%, 45.030212%)" offset="0.628906"/><stop stop-opacity="1" stop-color="rgb(61.483765%, 74.201965%, 45.175171%)" offset="0.632812"/><stop stop-opacity="1" stop-color="rgb(61.680603%, 74.385071%, 45.320129%)" offset="0.636719"/><stop stop-opacity="1" stop-color="rgb(61.878967%, 74.569702%, 45.465088%)" offset="0.640625"/><stop stop-opacity="1" stop-color="rgb(62.077332%, 74.752808%, 45.610046%)" offset="0.644531"/><stop stop-opacity="1" stop-color="rgb(62.275696%, 74.937439%, 45.755005%)" offset="0.648438"/><stop stop-opacity="1" stop-color="rgb(62.472534%, 75.120544%, 45.899963%)" offset="0.652344"/><stop stop-opacity="1" stop-color="rgb(62.670898%, 75.305176%, 46.044922%)" offset="0.65625"/><stop stop-opacity="1" stop-color="rgb(62.869263%, 75.488281%, 46.18988%)" offset="0.660156"/><stop stop-opacity="1" stop-color="rgb(63.067627%, 75.672913%, 46.334839%)" offset="0.664062"/><stop stop-opacity="1" stop-color="rgb(63.264465%, 75.857544%, 46.479797%)" offset="0.667969"/><stop stop-opacity="1" stop-color="rgb(63.46283%, 76.042175%, 46.624756%)" offset="0.671875"/><stop stop-opacity="1" stop-color="rgb(63.659668%, 76.225281%, 46.769714%)" offset="0.675781"/><stop stop-opacity="1" stop-color="rgb(63.858032%, 76.409912%, 46.914673%)" offset="0.679688"/><stop stop-opacity="1" stop-color="rgb(64.056396%, 76.593018%, 47.059631%)" offset="0.683594"/><stop stop-opacity="1" stop-color="rgb(64.254761%, 76.777649%, 47.20459%)" offset="0.6875"/><stop stop-opacity="1" stop-color="rgb(64.451599%, 76.960754%, 47.349548%)" offset="0.691406"/><stop stop-opacity="1" stop-color="rgb(64.649963%, 77.145386%, 47.494507%)" offset="0.695312"/><stop stop-opacity="1" stop-color="rgb(64.848328%, 77.328491%, 47.639465%)" offset="0.699219"/><stop stop-opacity="1" stop-color="rgb(65.046692%, 77.513123%, 47.784424%)" offset="0.703125"/><stop stop-opacity="1" stop-color="rgb(65.24353%, 77.696228%, 47.929382%)" offset="0.707031"/><stop stop-opacity="1" stop-color="rgb(65.441895%, 77.880859%, 48.074341%)" offset="0.710938"/><stop stop-opacity="1" stop-color="rgb(65.640259%, 78.063965%, 48.219299%)" offset="0.714844"/><stop stop-opacity="1" stop-color="rgb(65.838623%, 78.248596%, 48.364258%)" offset="0.71875"/><stop stop-opacity="1" stop-color="rgb(66.035461%, 78.433228%, 48.509216%)" offset="0.722656"/><stop stop-opacity="1" stop-color="rgb(66.233826%, 78.617859%, 48.654175%)" offset="0.726562"/><stop stop-opacity="1" stop-color="rgb(66.430664%, 78.800964%, 48.799133%)" offset="0.730469"/><stop stop-opacity="1" stop-color="rgb(66.629028%, 78.985596%, 48.944092%)" offset="0.734375"/><stop stop-opacity="1" stop-color="rgb(66.827393%, 79.168701%, 49.08905%)" offset="0.738281"/><stop stop-opacity="1" stop-color="rgb(67.025757%, 79.353333%, 49.234009%)" offset="0.742188"/><stop stop-opacity="1" stop-color="rgb(67.222595%, 79.536438%, 49.378967%)" offset="0.746094"/><stop stop-opacity="1" stop-color="rgb(67.420959%, 79.721069%, 49.523926%)" offset="0.75"/><stop stop-opacity="1" stop-color="rgb(67.619324%, 79.904175%, 49.668884%)" offset="0.753906"/><stop stop-opacity="1" stop-color="rgb(67.817688%, 80.088806%, 49.813843%)" offset="0.757812"/><stop stop-opacity="1" stop-color="rgb(68.014526%, 80.271912%, 49.957275%)" offset="0.761719"/><stop stop-opacity="1" stop-color="rgb(68.212891%, 80.456543%, 50.102234%)" offset="0.765625"/><stop stop-opacity="1" stop-color="rgb(68.409729%, 80.639648%, 50.247192%)" offset="0.769531"/><stop stop-opacity="1" stop-color="rgb(68.608093%, 80.82428%, 50.392151%)" offset="0.773437"/><stop stop-opacity="1" stop-color="rgb(68.806458%, 81.008911%, 50.537109%)" offset="0.777344"/><stop stop-opacity="1" stop-color="rgb(69.004822%, 81.193542%, 50.682068%)" offset="0.78125"/><stop stop-opacity="1" stop-color="rgb(69.20166%, 81.376648%, 50.827026%)" offset="0.785156"/><stop stop-opacity="1" stop-color="rgb(69.400024%, 81.561279%, 50.971985%)" offset="0.789062"/><stop stop-opacity="1" stop-color="rgb(69.404602%, 81.564331%, 50.975037%)" offset="0.796875"/><stop stop-opacity="1" stop-color="rgb(69.40918%, 81.568909%, 50.979614%)" offset="0.8125"/><stop stop-opacity="1" stop-color="rgb(69.40918%, 81.568909%, 50.979614%)" offset="0.875"/><stop stop-opacity="1" stop-color="rgb(69.40918%, 81.568909%, 50.979614%)" offset="0.969725"/><stop stop-opacity="1" stop-color="rgb(69.40918%, 81.568909%, 50.979614%)" offset="1"/></linearGradient><clipPath id="9244ec959e"><path d="M 0.847656 104 L 690 104 L 690 365 L 0.847656 365 Z M 0.847656 104 " clip-rule="nonzero"/></clipPath><clipPath id="19da211f8f"><rect x="0" width="690" y="0" height="261"/></clipPath><clipPath id="b2c1ecb101"><path d="M 191 74.191406 L 258 74.191406 L 258 193 L 191 193 Z M 191 74.191406 " clip-rule="nonzero"/></clipPath><clipPath id="836d43df43"><path d="M 137.023438 81 L 188 81 L 188 172 L 137.023438 172 Z M 137.023438 81 " clip-rule="nonzero"/></clipPath><clipPath id="6bfb8dae31"><path d="M 149.316406 81.417969 C 148.179688 87.128906 151.035156 93.015625 155.144531 97.128906 C 159.253906 101.238281 164.515625 103.976562 169.539062 106.914062 C 174.5625 109.851562 179.574219 113.191406 182.734375 118.085938 C 185.484375 122.339844 186.597656 127.433594 187.179688 132.46875 C 187.878906 138.558594 187.78125 144.964844 185.839844 150.710938 C 184.429688 147.253906 182.59375 143.933594 180.496094 140.84375 C 176.386719 134.753906 171.328125 129.375 166.292969 124.03125 C 160.40625 117.789062 154.527344 111.546875 148.640625 105.300781 C 154.730469 116.722656 164.171875 125.914062 172.15625 136.117188 C 180.140625 146.304688 186.941406 158.472656 186.195312 171.398438 C 185.601562 164.785156 180.238281 159.539062 174.417969 156.339844 C 168.601562 153.140625 162.074219 151.363281 156.328125 148.023438 C 145.476562 141.671875 138.179688 129.636719 137.609375 117.089844 C 137.042969 104.402344 142.835938 92.339844 149.316406 81.417969 Z M 149.316406 81.417969 " clip-rule="nonzero"/></clipPath><linearGradient x1="-1204.20996" gradientTransform="matrix(-0.118472, 0, 0, 0.118472, 19.909257, 74.191338)" y1="61" x2="-1204.20996" gradientUnits="userSpaceOnUse" y2="820.50006" id="5dfd0a1dc3"><stop stop-opacity="1" stop-color="rgb(53.50647%, 74.847412%, 25.752258%)" offset="0"/><stop stop-opacity="1" stop-color="rgb(53.416443%, 74.743652%, 25.744629%)" offset="0.125"/><stop stop-opacity="1" stop-color="rgb(53.236389%, 74.534607%, 25.727844%)" offset="0.25"/><stop stop-opacity="1" stop-color="rgb(53.057861%, 74.325562%, 25.71106%)" offset="0.375"/><stop stop-opacity="1" stop-color="rgb(52.877808%, 74.118042%, 25.695801%)" offset="0.5"/><stop stop-opacity="1" stop-color="rgb(52.69928%, 73.908997%, 25.679016%)" offset="0.625"/><stop stop-opacity="1" stop-color="rgb(52.520752%, 73.701477%, 25.662231%)" offset="0.75"/><stop stop-opacity="1" stop-color="rgb(52.340698%, 73.492432%, 25.646973%)" offset="0.875"/><stop stop-opacity="1" stop-color="rgb(52.16217%, 73.283386%, 25.630188%)" offset="1"/></linearGradient><clipPath id="267c97f998"><rect x="0" width="773" y="0" height="472"/></clipPath></defs><g transform="matrix(1, 0, 0, 1, 151, 52)"><g clip-path="url(#267c97f998)"><g clip-path="url(#70d9d46bfe)"><g clip-path="url(#65af891449)"><path fill="url(#1f704d0760)" d="M 306.257812 5.382812 L 306.257812 465.675781 L 767.386719 465.675781 L 767.386719 5.382812 Z M 306.257812 5.382812 " fill-rule="nonzero"/></g></g><g clip-path="url(#9244ec959e)"><g transform="matrix(1, 0, 0, 1, 0, 104)"><g clip-path="url(#19da211f8f)"><g fill="#ffffff" fill-opacity="1"><g transform="translate(2.391055, 186.479538)"><g><path d="M 75.328125 -173.828125 C 84.566406 -173.828125 93.597656 -172.476562 102.421875 -169.78125 C 111.253906 -167.09375 117.8125 -164.441406 122.09375 -161.828125 L 128.296875 -157.6875 L 112.578125 -126.640625 C 111.335938 -127.472656 109.613281 -128.539062 107.40625 -129.84375 C 105.195312 -131.15625 101.054688 -132.914062 94.984375 -135.125 C 88.910156 -137.332031 83.253906 -138.4375 78.015625 -138.4375 C 71.535156 -138.4375 66.535156 -137.054688 63.015625 -134.296875 C 59.492188 -131.535156 57.734375 -127.8125 57.734375 -123.125 C 57.734375 -120.78125 58.5625 -118.609375 60.21875 -116.609375 C 61.875 -114.609375 64.703125 -112.46875 68.703125 -110.1875 C 72.703125 -107.914062 76.21875 -106.085938 79.25 -104.703125 C 82.289062 -103.328125 86.984375 -101.257812 93.328125 -98.5 C 104.367188 -93.8125 113.785156 -87.429688 121.578125 -79.359375 C 129.367188 -71.285156 133.265625 -62.144531 133.265625 -51.9375 C 133.265625 -42.144531 131.503906 -33.59375 127.984375 -26.28125 C 124.472656 -18.96875 119.644531 -13.238281 113.5 -9.09375 C 107.363281 -4.957031 100.570312 -1.890625 93.125 0.109375 C 85.675781 2.109375 77.601562 3.109375 68.90625 3.109375 C 61.457031 3.109375 54.144531 2.347656 46.96875 0.828125 C 39.800781 -0.691406 33.800781 -2.585938 28.96875 -4.859375 C 24.144531 -7.140625 19.800781 -9.382812 15.9375 -11.59375 C 12.070312 -13.800781 9.242188 -15.660156 7.453125 -17.171875 L 4.765625 -19.453125 L 24.21875 -52.140625 C 25.863281 -50.765625 28.132812 -49.003906 31.03125 -46.859375 C 33.9375 -44.722656 39.078125 -41.863281 46.453125 -38.28125 C 53.835938 -34.695312 60.359375 -32.90625 66.015625 -32.90625 C 82.429688 -32.90625 90.640625 -38.492188 90.640625 -49.671875 C 90.640625 -52.015625 90.050781 -54.1875 88.875 -56.1875 C 87.707031 -58.1875 85.640625 -60.1875 82.671875 -62.1875 C 79.703125 -64.1875 77.078125 -65.769531 74.796875 -66.9375 C 72.523438 -68.113281 68.800781 -69.910156 63.625 -72.328125 C 58.457031 -74.742188 54.628906 -76.570312 52.140625 -77.8125 C 41.796875 -82.914062 33.796875 -89.296875 28.140625 -96.953125 C 22.484375 -104.609375 19.65625 -112.847656 19.65625 -121.671875 C 19.65625 -136.992188 25.3125 -149.515625 36.625 -159.234375 C 47.9375 -168.960938 60.835938 -173.828125 75.328125 -173.828125 Z M 75.328125 -173.828125 "/></g></g></g><g fill="#ffffff" fill-opacity="1"><g transform="translate(123.853042, 186.479538)"><g><path d="M 46.96875 -106.15625 L 46.96875 -55.671875 C 46.96875 -45.179688 48.554688 -37.726562 51.734375 -33.3125 C 54.910156 -28.894531 60.289062 -26.6875 67.875 -26.6875 C 75.457031 -26.6875 80.835938 -28.894531 84.015625 -33.3125 C 87.191406 -37.726562 88.78125 -45.179688 88.78125 -55.671875 L 88.78125 -106.15625 L 125.40625 -106.15625 L 125.40625 -46.765625 C 125.40625 -29.109375 120.816406 -16.378906 111.640625 -8.578125 C 102.460938 -0.785156 87.875 3.109375 67.875 3.109375 C 47.875 3.109375 33.285156 -0.785156 24.109375 -8.578125 C 14.929688 -16.378906 10.34375 -29.109375 10.34375 -46.765625 L 10.34375 -106.15625 Z M 46.96875 -106.15625 "/></g></g></g><g fill="#ffffff" fill-opacity="1"><g transform="translate(242.004219, 186.479538)"><g><path d="M 58.5625 -109.265625 C 64.632812 -109.265625 70.632812 -108.570312 76.5625 -107.1875 C 82.5 -105.8125 86.914062 -104.4375 89.8125 -103.0625 L 94.15625 -100.984375 L 82.15625 -76.984375 C 73.875 -81.398438 66.007812 -83.609375 58.5625 -83.609375 C 54.425781 -83.609375 51.492188 -83.15625 49.765625 -82.25 C 48.046875 -81.351562 47.1875 -79.664062 47.1875 -77.1875 C 47.1875 -76.632812 47.253906 -76.082031 47.390625 -75.53125 C 47.523438 -74.976562 47.800781 -74.457031 48.21875 -73.96875 C 48.632812 -73.488281 49.015625 -73.078125 49.359375 -72.734375 C 49.703125 -72.390625 50.285156 -72.007812 51.109375 -71.59375 C 51.941406 -71.1875 52.597656 -70.878906 53.078125 -70.671875 C 53.554688 -70.460938 54.347656 -70.148438 55.453125 -69.734375 C 56.554688 -69.316406 57.382812 -69.003906 57.9375 -68.796875 C 58.488281 -68.597656 59.421875 -68.289062 60.734375 -67.875 C 62.046875 -67.457031 63.046875 -67.179688 63.734375 -67.046875 C 68.015625 -65.804688 71.738281 -64.425781 74.90625 -62.90625 C 78.082031 -61.382812 81.425781 -59.3125 84.9375 -56.6875 C 88.457031 -54.070312 91.179688 -50.765625 93.109375 -46.765625 C 95.046875 -42.765625 96.015625 -38.210938 96.015625 -33.109375 C 96.015625 -8.960938 79.253906 3.109375 45.734375 3.109375 C 38.148438 3.109375 30.941406 1.9375 24.109375 -0.40625 C 17.273438 -2.757812 12.34375 -5.109375 9.3125 -7.453125 L 4.765625 -11.171875 L 19.65625 -36.21875 C 20.757812 -35.25 22.207031 -34.109375 24 -32.796875 C 25.789062 -31.484375 29.03125 -29.6875 33.71875 -27.40625 C 38.414062 -25.132812 42.488281 -24 45.9375 -24 C 53.53125 -24 57.328125 -26.550781 57.328125 -31.65625 C 57.328125 -34 56.359375 -35.828125 54.421875 -37.140625 C 52.492188 -38.453125 49.21875 -39.9375 44.59375 -41.59375 C 39.96875 -43.25 36.347656 -44.765625 33.734375 -46.140625 C 27.109375 -49.597656 21.863281 -53.5 18 -57.84375 C 14.132812 -62.1875 12.203125 -67.945312 12.203125 -75.125 C 12.203125 -85.882812 16.375 -94.265625 24.71875 -100.265625 C 33.070312 -106.265625 44.351562 -109.265625 58.5625 -109.265625 Z M 58.5625 -109.265625 "/></g></g></g><g fill="#ffffff" fill-opacity="1"><g transform="translate(326.219924, 186.479538)"><g><path d="M 18.625 -106.15625 L 18.625 -145.6875 L 55.25 -145.6875 L 55.25 -106.15625 L 77.609375 -106.15625 L 77.609375 -78.21875 L 55.25 -78.21875 L 55.25 -44.484375 C 55.25 -34.691406 58.007812 -29.796875 63.53125 -29.796875 C 64.90625 -29.796875 66.351562 -30.070312 67.875 -30.625 C 69.394531 -31.175781 70.566406 -31.726562 71.390625 -32.28125 L 72.640625 -33.109375 L 81.734375 -3.515625 C 73.867188 0.898438 64.90625 3.109375 54.84375 3.109375 C 47.9375 3.109375 42 1.898438 37.03125 -0.515625 C 32.070312 -2.929688 28.316406 -6.171875 25.765625 -10.234375 C 23.210938 -14.304688 21.382812 -18.582031 20.28125 -23.0625 C 19.175781 -27.550781 18.625 -32.347656 18.625 -37.453125 L 18.625 -78.21875 L 3.3125 -78.21875 L 3.3125 -106.15625 Z M 18.625 -106.15625 "/></g></g></g><g fill="#ffffff" fill-opacity="1"><g transform="translate(390.364077, 186.479538)"><g><path d="M 19.65625 -13.140625 C 9.726562 -23.972656 4.765625 -37.25 4.765625 -52.96875 C 4.765625 -68.695312 9.726562 -82.007812 19.65625 -92.90625 C 29.59375 -103.8125 42.21875 -109.265625 57.53125 -109.265625 C 71.601562 -109.265625 83.191406 -104.847656 92.296875 -96.015625 L 92.296875 -106.15625 L 128.921875 -106.15625 L 128.921875 0 L 92.703125 0 L 92.703125 -12 L 92.296875 -12 C 83.191406 -1.925781 71.601562 3.109375 57.53125 3.109375 C 42.21875 3.109375 29.59375 -2.304688 19.65625 -13.140625 Z M 50.796875 -70.96875 C 46.035156 -66.28125 43.65625 -60.28125 43.65625 -52.96875 C 43.65625 -45.664062 45.929688 -39.703125 50.484375 -35.078125 C 55.046875 -30.453125 61.050781 -28.140625 68.5 -28.140625 C 75.664062 -28.140625 81.5625 -30.484375 86.1875 -35.171875 C 90.8125 -39.867188 93.125 -45.800781 93.125 -52.96875 C 93.125 -60.28125 90.742188 -66.28125 85.984375 -70.96875 C 81.222656 -75.664062 75.394531 -78.015625 68.5 -78.015625 C 61.457031 -78.015625 55.554688 -75.664062 50.796875 -70.96875 Z M 50.796875 -70.96875 "/></g></g></g><g fill="#ffffff" fill-opacity="1"><g transform="translate(514.102198, 186.479538)"><g><path d="M 15.921875 -165.34375 C 20.203125 -169.625 25.304688 -171.765625 31.234375 -171.765625 C 37.171875 -171.765625 42.273438 -169.625 46.546875 -165.34375 C 50.828125 -161.0625 52.96875 -155.953125 52.96875 -150.015625 C 52.96875 -144.085938 50.828125 -138.984375 46.546875 -134.703125 C 42.273438 -130.429688 37.171875 -128.296875 31.234375 -128.296875 C 25.304688 -128.296875 20.203125 -130.429688 15.921875 -134.703125 C 11.648438 -138.984375 9.515625 -144.085938 9.515625 -150.015625 C 9.515625 -155.953125 11.648438 -161.0625 15.921875 -165.34375 Z M 12.421875 -106.15625 L 12.421875 0 L 49.046875 0 L 49.046875 -106.15625 Z M 12.421875 -106.15625 "/></g></g></g><g fill="#ffffff" fill-opacity="1"><g transform="translate(559.002437, 186.479538)"><g><path d="M 12.421875 0 L 12.421875 -106.15625 L 49.046875 -106.15625 L 49.046875 -94.984375 L 49.453125 -94.984375 C 58.972656 -104.503906 69.113281 -109.265625 79.875 -109.265625 C 85.113281 -109.265625 90.320312 -108.570312 95.5 -107.1875 C 100.675781 -105.8125 105.644531 -103.675781 110.40625 -100.78125 C 115.164062 -97.882812 119.023438 -93.78125 121.984375 -88.46875 C 124.953125 -83.15625 126.4375 -76.976562 126.4375 -69.9375 L 126.4375 0 L 89.8125 0 L 89.8125 -60.015625 C 89.8125 -65.535156 88.050781 -70.363281 84.53125 -74.5 C 81.007812 -78.632812 76.421875 -80.703125 70.765625 -80.703125 C 65.253906 -80.703125 60.253906 -78.5625 55.765625 -74.28125 C 51.285156 -70.007812 49.046875 -65.253906 49.046875 -60.015625 L 49.046875 0 Z M 12.421875 0 "/></g></g></g></g></g></g><g clip-path="url(#b2c1ecb101)"><path fill="#8cc342" d="M 242.03125 74.191406 C 243.535156 81.726562 239.769531 89.496094 234.34375 94.925781 C 228.917969 100.363281 221.972656 103.964844 215.351562 107.835938 C 208.71875 111.710938 202.09375 116.128906 197.9375 122.585938 C 194.3125 128.203125 192.828125 134.933594 192.070312 141.566406 C 191.125 149.621094 191.253906 158.070312 193.8125 165.652344 C 195.671875 161.078125 198.101562 156.707031 200.863281 152.621094 C 206.289062 144.574219 212.96875 137.480469 219.617188 130.417969 C 227.386719 122.171875 235.148438 113.9375 242.917969 105.691406 C 234.875 120.761719 222.414062 132.917969 211.878906 146.363281 C 201.347656 159.824219 192.367188 175.886719 193.351562 192.945312 C 194.132812 184.214844 201.21875 177.285156 208.90625 173.066406 C 216.59375 168.851562 225.207031 166.492188 232.777344 162.085938 C 247.101562 153.746094 256.734375 137.847656 257.480469 121.285156 C 258.238281 104.53125 250.597656 88.597656 242.03125 74.191406 Z M 242.03125 74.191406 " fill-opacity="1" fill-rule="nonzero"/></g><g clip-path="url(#836d43df43)"><g clip-path="url(#6bfb8dae31)"><path fill="url(#5dfd0a1dc3)" d="M 187.878906 81.417969 L 187.878906 171.398438 L 137.042969 171.398438 L 137.042969 81.417969 Z M 187.878906 81.417969 " fill-rule="nonzero"/></g></g><g fill="#ffffff" fill-opacity="1"><g transform="translate(186.141618, 372.731423)"><g><path d="M 16.109375 -19.59375 C 7.648438 -21.539062 3.421875 -25.160156 3.421875 -30.453125 C 3.421875 -34.347656 4.78125 -37.273438 7.5 -39.234375 C 10.226562 -41.140625 13.421875 -42.09375 17.078125 -42.09375 C 25.171875 -42.09375 29.972656 -39.085938 31.484375 -33.078125 L 26.84375 -33.078125 C 26.03125 -36.648438 22.773438 -38.4375 17.078125 -38.4375 C 13.097656 -38.4375 10.3125 -37.257812 8.71875 -34.90625 C 8.113281 -34.007812 7.8125 -32.890625 7.8125 -31.546875 C 7.8125 -28.984375 9.191406 -27.007812 11.953125 -25.625 C 13.253906 -24.9375 16.019531 -24.039062 20.25 -22.9375 C 24.488281 -21.84375 27.5625 -20.625 29.46875 -19.28125 C 32.113281 -17.40625 33.4375 -14.78125 33.4375 -11.40625 C 33.4375 -7.21875 31.789062 -4.046875 28.5 -1.890625 C 25.726562 -0.0976562 22.3125 0.796875 18.25 0.796875 C 9.050781 0.796875 3.71875 -2.703125 2.25 -9.703125 L 7.328125 -9.703125 C 8.097656 -5.304688 11.738281 -3.109375 18.25 -3.109375 C 22.882812 -3.109375 26.113281 -4.390625 27.9375 -6.953125 C 28.675781 -7.972656 29.046875 -9.359375 29.046875 -11.109375 C 29.046875 -12.816406 28.375 -14.21875 27.03125 -15.3125 C 25.113281 -16.863281 21.472656 -18.289062 16.109375 -19.59375 Z M 16.109375 -19.59375 "/></g></g></g><g fill="#ffffff" fill-opacity="1"><g transform="translate(221.160276, 372.731423)"><g><path d="M 8 15.25 L 2.8125 15.25 L 11.84375 -4.390625 L 0.609375 -26.84375 L 5.484375 -26.84375 L 14.09375 -8.84375 L 21.78125 -26.84375 L 26.546875 -26.84375 Z M 8 15.25 "/></g></g></g><g fill="#ffffff" fill-opacity="1"><g transform="translate(247.088727, 372.731423)"><g><path d="M 23.125 0 L 23.125 -16.78125 C 23.125 -18.53125 22.738281 -20.035156 21.96875 -21.296875 C 21.15625 -22.515625 19.832031 -23.125 18 -23.125 C 16.164062 -23.125 14.679688 -22.78125 13.546875 -22.09375 C 12.410156 -21.394531 11.492188 -20.5 10.796875 -19.40625 C 9.492188 -17.375 8.84375 -14.648438 8.84375 -11.234375 L 8.84375 0 L 4.578125 0 L 4.578125 -26.84375 L 8.84375 -26.84375 L 8.84375 -22.203125 C 9.738281 -23.710938 10.878906 -24.957031 12.265625 -25.9375 C 13.722656 -26.90625 15.410156 -27.390625 17.328125 -27.390625 C 19.242188 -27.390625 20.789062 -27.128906 21.96875 -26.609375 C 23.144531 -26.035156 24.140625 -25.28125 24.953125 -24.34375 C 26.578125 -22.4375 27.390625 -19.914062 27.390625 -16.78125 L 27.390625 0 Z M 23.125 0 "/></g></g></g><g fill="#ffffff" fill-opacity="1"><g transform="translate(278.141864, 372.731423)"><g><path d="M 29.65625 -17.203125 L 25.015625 -17.203125 C 24.285156 -18.910156 23.144531 -20.296875 21.59375 -21.359375 C 20.050781 -22.410156 18.488281 -22.9375 16.90625 -22.9375 C 15.3125 -22.9375 13.945312 -22.691406 12.8125 -22.203125 C 11.675781 -21.679688 10.703125 -20.992188 9.890625 -20.140625 C 8.054688 -18.222656 7.140625 -15.984375 7.140625 -13.421875 C 7.140625 -10.816406 8.054688 -8.582031 9.890625 -6.71875 C 11.671875 -4.800781 13.863281 -3.84375 16.46875 -3.84375 C 18.175781 -3.84375 19.765625 -4.289062 21.234375 -5.1875 C 22.660156 -6.082031 23.78125 -7.28125 24.59375 -8.78125 L 29.40625 -8.78125 C 27.90625 -4.46875 25 -1.582031 20.6875 -0.125 C 19.34375 0.363281 17.816406 0.609375 16.109375 0.609375 C 14.398438 0.609375 12.710938 0.222656 11.046875 -0.546875 C 9.378906 -1.273438 7.9375 -2.289062 6.71875 -3.59375 C 4.070312 -6.363281 2.75 -9.640625 2.75 -13.421875 C 2.75 -17.242188 4.070312 -20.519531 6.71875 -23.25 C 9.394531 -26.007812 12.644531 -27.390625 16.46875 -27.390625 C 19.5625 -27.390625 22.347656 -26.4375 24.828125 -24.53125 C 27.191406 -22.695312 28.800781 -20.253906 29.65625 -17.203125 Z M 29.65625 -17.203125 "/></g></g></g><g fill="#ffffff" fill-opacity="1"><g transform="translate(309.941517, 372.731423)"><g/></g></g><g fill="#ffffff" fill-opacity="1"><g transform="translate(326.413714, 372.731423)"><g/></g></g><g fill="#ffffff" fill-opacity="1"><g transform="translate(342.885911, 372.731423)"><g/></g></g></g></g></svg>
