<svg xmlns="http://www.w3.org/2000/svg" xmlns:xlink="http://www.w3.org/1999/xlink" width="300" zoomAndPan="magnify" viewBox="0 0 224.87999 225" height="300" preserveAspectRatio="xMidYMid meet" version="1.0"><defs><g/><clipPath id="597715a4a3"><path d="M 13 48 L 224.761719 48 L 224.761719 178 L 13 178 Z M 13 48 " clip-rule="nonzero"/></clipPath><clipPath id="13e8e3e639"><path d="M 84.480469 1.523438 L 210.492188 1.523438 L 210.492188 127.308594 L 84.480469 127.308594 Z M 84.480469 1.523438 " clip-rule="nonzero"/></clipPath><clipPath id="1782db4be5"><path d="M 152.101562 25.78125 C 154.761719 22.09375 158.011719 21.554688 161.578125 22.738281 C 159.121094 25.953125 156.078125 27.335938 152.101562 25.78125 M 165.410156 21.667969 C 171.234375 16.753906 176.734375 17.195312 182.054688 20.574219 C 176.753906 24.796875 171.246094 25.816406 165.410156 21.667969 Z M 185.546875 20.625 C 194.925781 20.339844 199.066406 25.09375 200.320312 32.628906 C 191.816406 32.503906 186.386719 29.097656 185.546875 20.625 Z M 201.191406 34.949219 C 204.566406 37.996094 204.75 41.28125 203.179688 44.703125 C 200.257812 41.90625 199.210938 38.734375 201.191406 34.949219 Z M 170.839844 33.28125 C 174.988281 31.417969 178.070312 32.570312 180.570312 35.382812 C 176.832031 36.9375 173.507812 36.617188 170.839844 33.28125 Z M 184.421875 36.371094 C 191.921875 35.027344 196.464844 38.160156 199.382812 43.746094 C 192.679688 44.753906 187.402344 42.878906 184.421875 36.371094 Z M 202.382812 45.539062 C 210.644531 49.980469 211.855469 56.167969 209.171875 63.316406 C 201.875 58.957031 198.875 53.296875 202.382812 45.539062 Z M 208.765625 65.765625 C 210.167969 70.089844 208.683594 73.027344 205.617188 75.203125 C 204.480469 71.320312 205.160156 68.050781 208.765625 65.765625 Z M 158.304688 32.3125 C 162.222656 30.003906 165.414062 30.816406 168.207031 33.335938 C 164.664062 35.289062 161.324219 35.335938 158.304688 32.3125 Z M 183.320312 49.144531 C 187.84375 49.601562 189.933594 52.144531 190.691406 55.828125 C 186.679688 55.304688 183.960938 53.363281 183.320312 49.144531 Z M 193.535156 58.609375 C 200.703125 61.199219 203.070312 66.179688 202.804688 72.476562 C 196.496094 69.996094 192.859375 65.738281 193.535156 58.609375 Z M 204.503906 75.527344 C 209.441406 83.507812 207.394531 89.472656 201.496094 94.324219 C 197.355469 86.898438 197.585938 80.492188 204.503906 75.527344 Z M 199.921875 96.238281 C 198.972656 100.683594 196.21875 102.488281 192.472656 102.839844 C 193.429688 98.90625 195.65625 96.417969 199.921875 96.238281 Z M 172.945312 42.039062 C 177.492188 42 179.851562 44.292969 181.007812 47.871094 C 176.964844 47.792969 174.046875 46.164062 172.945312 42.039062 Z M 186.195312 69.121094 C 189.882812 71.78125 190.421875 75.027344 189.234375 78.597656 C 186.023438 76.136719 184.636719 73.097656 186.195312 69.121094 Z M 190.308594 82.425781 C 195.21875 88.25 194.78125 93.75 191.402344 99.070312 C 187.179688 93.769531 186.160156 88.261719 190.308594 82.425781 Z M 191.347656 102.5625 C 191.632812 111.941406 186.878906 116.085938 179.347656 117.335938 C 179.472656 108.835938 182.875 103.402344 191.347656 102.5625 Z M 177.023438 118.207031 C 173.976562 121.582031 170.691406 121.765625 167.273438 120.199219 C 170.066406 117.273438 173.238281 116.226562 177.023438 118.207031 Z M 180.761719 57.78125 C 184.71875 60.019531 185.613281 63.1875 184.828125 66.863281 C 181.363281 64.773438 179.652344 61.90625 180.761719 57.78125 Z M 178.695312 87.859375 C 180.558594 92.003906 179.402344 95.085938 176.589844 97.585938 C 175.039062 93.851562 175.359375 90.523438 178.695312 87.859375 Z M 175.605469 101.441406 C 176.945312 108.941406 173.816406 113.484375 168.230469 116.402344 C 167.222656 109.695312 169.09375 104.417969 175.605469 101.441406 Z M 166.4375 119.398438 C 161.992188 127.664062 155.804688 128.875 148.65625 126.191406 C 153.015625 118.890625 158.679688 115.890625 166.4375 119.398438 Z M 146.210938 125.785156 C 141.882812 127.183594 138.945312 125.699219 136.769531 122.632812 C 140.652344 121.496094 143.921875 122.175781 146.210938 125.785156 Z M 179.660156 75.324219 C 181.96875 79.238281 181.160156 82.429688 178.640625 85.222656 C 176.683594 81.679688 176.636719 78.339844 179.660156 75.324219 Z M 162.832031 100.335938 C 162.371094 104.859375 159.828125 106.953125 156.144531 107.707031 C 156.667969 103.695312 158.609375 100.976562 162.832031 100.335938 Z M 153.363281 110.554688 C 150.777344 117.71875 145.792969 120.085938 139.496094 119.820312 C 141.976562 113.511719 146.238281 109.875 153.363281 110.554688 Z M 136.445312 121.523438 C 128.464844 126.457031 122.5 124.414062 117.652344 118.515625 C 125.078125 114.371094 131.480469 114.605469 136.445312 121.523438 Z M 115.734375 116.9375 C 111.289062 115.988281 109.488281 113.234375 109.136719 109.488281 C 113.066406 110.445312 115.558594 112.671875 115.734375 116.9375 Z M 169.9375 89.964844 C 169.976562 94.507812 167.679688 96.867188 164.101562 98.027344 C 164.179688 93.980469 165.808594 91.066406 169.9375 89.964844 Z M 142.855469 103.210938 C 140.195312 106.898438 136.949219 107.4375 133.378906 106.253906 C 135.835938 103.039062 138.878906 101.65625 142.855469 103.210938 Z M 129.546875 107.324219 C 123.722656 112.238281 118.222656 111.796875 112.902344 108.417969 C 118.207031 104.195312 123.714844 103.175781 129.546875 107.324219 Z M 109.410156 108.367188 C 100.03125 108.648438 95.890625 103.898438 94.640625 96.363281 C 103.140625 96.488281 108.570312 99.890625 109.410156 108.367188 Z M 93.765625 94.039062 C 90.390625 90.996094 90.207031 87.707031 91.777344 84.289062 C 94.703125 87.082031 95.746094 90.257812 93.765625 94.039062 Z M 154.191406 97.777344 C 151.957031 101.738281 148.789062 102.632812 145.109375 101.84375 C 147.199219 98.382812 150.070312 96.671875 154.191406 97.777344 Z M 124.117188 95.710938 C 119.96875 97.574219 116.886719 96.417969 114.390625 93.609375 C 118.125 92.054688 121.449219 92.375 124.117188 95.710938 Z M 110.535156 92.621094 C 103.035156 93.964844 98.492188 90.832031 95.574219 85.246094 C 102.277344 84.238281 107.558594 86.109375 110.535156 92.621094 Z M 92.574219 83.453125 C 84.3125 79.011719 83.101562 72.824219 85.785156 65.675781 C 93.085938 70.03125 96.085938 75.695312 92.574219 83.453125 Z M 86.191406 63.226562 C 84.789062 58.902344 86.273438 55.964844 89.34375 53.785156 C 90.480469 57.667969 89.796875 60.9375 86.191406 63.226562 Z M 136.652344 96.675781 C 132.734375 98.984375 129.542969 98.175781 126.753906 95.65625 C 130.292969 93.703125 133.632812 93.65625 136.652344 96.675781 Z M 111.636719 79.847656 C 107.113281 79.386719 105.023438 76.847656 104.265625 73.164062 C 108.277344 73.683594 110.996094 75.625 111.636719 79.847656 Z M 101.421875 70.378906 C 94.253906 67.792969 91.886719 62.808594 92.152344 56.511719 C 98.460938 58.992188 102.097656 63.253906 101.421875 70.378906 Z M 90.453125 53.460938 C 85.515625 45.484375 87.5625 39.519531 93.460938 34.667969 C 97.601562 42.09375 97.371094 48.5 90.453125 53.460938 Z M 95.035156 32.753906 C 95.988281 28.304688 98.738281 26.503906 102.484375 26.152344 C 101.527344 30.082031 99.304688 32.574219 95.035156 32.753906 Z M 122.011719 86.953125 C 117.464844 86.992188 115.109375 84.695312 113.949219 81.117188 C 117.992188 81.195312 120.910156 82.828125 122.011719 86.953125 Z M 108.765625 59.871094 C 105.078125 57.210938 104.535156 53.964844 105.722656 50.394531 C 108.933594 52.851562 110.320312 55.894531 108.765625 59.871094 Z M 104.652344 46.5625 C 99.734375 40.738281 100.175781 35.238281 103.558594 29.917969 C 107.78125 35.222656 108.796875 40.730469 104.652344 46.5625 Z M 103.609375 26.425781 C 103.324219 17.050781 108.078125 12.90625 115.609375 11.65625 C 115.484375 20.15625 112.082031 25.585938 103.609375 26.425781 Z M 117.933594 10.785156 C 120.980469 7.410156 124.265625 7.222656 127.683594 8.792969 C 124.890625 11.71875 121.71875 12.761719 117.933594 10.785156 Z M 114.195312 71.210938 C 110.238281 68.972656 109.34375 65.804688 110.128906 62.125 C 113.59375 64.214844 115.304688 67.085938 114.195312 71.210938 Z M 116.261719 41.132812 C 114.398438 36.988281 115.554688 33.90625 118.367188 31.40625 C 119.921875 35.140625 119.597656 38.46875 116.261719 41.132812 Z M 119.355469 27.550781 C 118.011719 20.050781 121.144531 15.507812 126.730469 12.589844 C 127.734375 19.296875 125.863281 24.574219 119.355469 27.550781 Z M 128.519531 9.59375 C 132.964844 1.328125 139.152344 0.117188 146.300781 2.800781 C 141.941406 10.101562 136.277344 13.101562 128.519531 9.59375 Z M 148.746094 3.207031 C 153.074219 1.808594 156.011719 3.292969 158.1875 6.359375 C 154.304688 7.496094 151.035156 6.816406 148.746094 3.207031 Z M 115.296875 53.667969 C 112.988281 49.753906 113.796875 46.5625 116.316406 43.769531 C 118.273438 47.308594 118.320312 50.652344 115.296875 53.667969 Z M 132.125 28.65625 C 132.585938 24.132812 135.128906 22.042969 138.8125 21.285156 C 138.289062 25.292969 136.347656 28.015625 132.125 28.65625 Z M 141.59375 18.4375 C 144.179688 11.273438 149.164062 8.902344 155.460938 9.167969 C 152.980469 15.480469 148.71875 19.113281 141.59375 18.4375 Z M 158.511719 7.46875 C 166.492188 2.535156 172.457031 4.578125 177.304688 10.476562 C 169.878906 14.621094 163.476562 14.386719 158.511719 7.46875 Z M 179.222656 12.054688 C 183.667969 13.003906 185.46875 15.757812 185.820312 19.503906 C 181.890625 18.546875 179.398438 16.320312 179.222656 12.054688 Z M 125.023438 39.027344 C 124.980469 34.484375 127.277344 32.125 130.855469 30.964844 C 130.777344 35.007812 129.148438 37.925781 125.023438 39.027344 Z M 140.765625 31.210938 C 143.003906 27.253906 146.167969 26.359375 149.847656 27.144531 C 147.757812 30.609375 144.886719 32.320312 140.765625 31.210938 Z M 140.765625 31.210938 " clip-rule="nonzero"/></clipPath><linearGradient x1="-12.16818" gradientTransform="matrix(0.0431549, 0, 0, 0.0431549, 83.099964, 0.117123)" y1="1444.761023" x2="2996.053154" gradientUnits="userSpaceOnUse" y2="1538.84916" id="8d951cd729"><stop stop-opacity="1" stop-color="rgb(41.569519%, 55.688477%, 30.589294%)" offset="0"/><stop stop-opacity="1" stop-color="rgb(41.569519%, 55.688477%, 30.589294%)" offset="0.0302754"/><stop stop-opacity="1" stop-color="rgb(41.569519%, 55.688477%, 30.589294%)" offset="0.125"/><stop stop-opacity="1" stop-color="rgb(41.569519%, 55.688477%, 30.589294%)" offset="0.1875"/><stop stop-opacity="1" stop-color="rgb(41.569519%, 55.688477%, 30.589294%)" offset="0.21875"/><stop stop-opacity="1" stop-color="rgb(41.569519%, 55.688477%, 30.589294%)" offset="0.234375"/><stop stop-opacity="1" stop-color="rgb(41.630554%, 55.74646%, 30.633545%)" offset="0.242188"/><stop stop-opacity="1" stop-color="rgb(41.889954%, 55.987549%, 30.82428%)" offset="0.246094"/><stop stop-opacity="1" stop-color="rgb(42.088318%, 56.17218%, 30.969238%)" offset="0.25"/><stop stop-opacity="1" stop-color="rgb(42.285156%, 56.355286%, 31.114197%)" offset="0.253906"/><stop stop-opacity="1" stop-color="rgb(42.483521%, 56.539917%, 31.259155%)" offset="0.257812"/><stop stop-opacity="1" stop-color="rgb(42.681885%, 56.723022%, 31.404114%)" offset="0.261719"/><stop stop-opacity="1" stop-color="rgb(42.880249%, 56.907654%, 31.549072%)" offset="0.265625"/><stop stop-opacity="1" stop-color="rgb(43.077087%, 57.090759%, 31.694031%)" offset="0.269531"/><stop stop-opacity="1" stop-color="rgb(43.275452%, 57.275391%, 31.838989%)" offset="0.273438"/><stop stop-opacity="1" stop-color="rgb(43.473816%, 57.458496%, 31.983948%)" offset="0.277344"/><stop stop-opacity="1" stop-color="rgb(43.67218%, 57.643127%, 32.128906%)" offset="0.28125"/><stop stop-opacity="1" stop-color="rgb(43.869019%, 57.827759%, 32.273865%)" offset="0.285156"/><stop stop-opacity="1" stop-color="rgb(44.067383%, 58.01239%, 32.418823%)" offset="0.289062"/><stop stop-opacity="1" stop-color="rgb(44.264221%, 58.195496%, 32.563782%)" offset="0.292969"/><stop stop-opacity="1" stop-color="rgb(44.462585%, 58.380127%, 32.70874%)" offset="0.296875"/><stop stop-opacity="1" stop-color="rgb(44.66095%, 58.563232%, 32.853699%)" offset="0.300781"/><stop stop-opacity="1" stop-color="rgb(44.859314%, 58.747864%, 32.998657%)" offset="0.304687"/><stop stop-opacity="1" stop-color="rgb(45.056152%, 58.930969%, 33.143616%)" offset="0.308594"/><stop stop-opacity="1" stop-color="rgb(45.254517%, 59.115601%, 33.288574%)" offset="0.3125"/><stop stop-opacity="1" stop-color="rgb(45.452881%, 59.298706%, 33.433533%)" offset="0.316406"/><stop stop-opacity="1" stop-color="rgb(45.651245%, 59.483337%, 33.578491%)" offset="0.320312"/><stop stop-opacity="1" stop-color="rgb(45.848083%, 59.666443%, 33.72345%)" offset="0.324219"/><stop stop-opacity="1" stop-color="rgb(46.046448%, 59.851074%, 33.868408%)" offset="0.328125"/><stop stop-opacity="1" stop-color="rgb(46.244812%, 60.03418%, 34.013367%)" offset="0.332031"/><stop stop-opacity="1" stop-color="rgb(46.443176%, 60.218811%, 34.158325%)" offset="0.335937"/><stop stop-opacity="1" stop-color="rgb(46.640015%, 60.403442%, 34.303284%)" offset="0.339844"/><stop stop-opacity="1" stop-color="rgb(46.838379%, 60.588074%, 34.448242%)" offset="0.34375"/><stop stop-opacity="1" stop-color="rgb(47.035217%, 60.771179%, 34.593201%)" offset="0.347656"/><stop stop-opacity="1" stop-color="rgb(47.233582%, 60.955811%, 34.738159%)" offset="0.351562"/><stop stop-opacity="1" stop-color="rgb(47.431946%, 61.138916%, 34.883118%)" offset="0.355469"/><stop stop-opacity="1" stop-color="rgb(47.63031%, 61.323547%, 35.028076%)" offset="0.359375"/><stop stop-opacity="1" stop-color="rgb(47.827148%, 61.506653%, 35.173035%)" offset="0.363281"/><stop stop-opacity="1" stop-color="rgb(48.025513%, 61.691284%, 35.317993%)" offset="0.367187"/><stop stop-opacity="1" stop-color="rgb(48.223877%, 61.87439%, 35.462952%)" offset="0.371094"/><stop stop-opacity="1" stop-color="rgb(48.422241%, 62.059021%, 35.60791%)" offset="0.375"/><stop stop-opacity="1" stop-color="rgb(48.61908%, 62.242126%, 35.752869%)" offset="0.378906"/><stop stop-opacity="1" stop-color="rgb(48.817444%, 62.426758%, 35.897827%)" offset="0.382812"/><stop stop-opacity="1" stop-color="rgb(49.014282%, 62.609863%, 36.042786%)" offset="0.386719"/><stop stop-opacity="1" stop-color="rgb(49.212646%, 62.794495%, 36.187744%)" offset="0.390625"/><stop stop-opacity="1" stop-color="rgb(49.411011%, 62.979126%, 36.332703%)" offset="0.394531"/><stop stop-opacity="1" stop-color="rgb(49.609375%, 63.163757%, 36.477661%)" offset="0.398437"/><stop stop-opacity="1" stop-color="rgb(49.806213%, 63.346863%, 36.62262%)" offset="0.402344"/><stop stop-opacity="1" stop-color="rgb(50.004578%, 63.531494%, 36.767578%)" offset="0.40625"/><stop stop-opacity="1" stop-color="rgb(50.202942%, 63.7146%, 36.912537%)" offset="0.410156"/><stop stop-opacity="1" stop-color="rgb(50.401306%, 63.899231%, 37.057495%)" offset="0.414062"/><stop stop-opacity="1" stop-color="rgb(50.598145%, 64.082336%, 37.202454%)" offset="0.417969"/><stop stop-opacity="1" stop-color="rgb(50.796509%, 64.266968%, 37.347412%)" offset="0.421875"/><stop stop-opacity="1" stop-color="rgb(50.993347%, 64.450073%, 37.492371%)" offset="0.425781"/><stop stop-opacity="1" stop-color="rgb(51.191711%, 64.634705%, 37.637329%)" offset="0.429688"/><stop stop-opacity="1" stop-color="rgb(51.390076%, 64.81781%, 37.782288%)" offset="0.433594"/><stop stop-opacity="1" stop-color="rgb(51.58844%, 65.002441%, 37.927246%)" offset="0.4375"/><stop stop-opacity="1" stop-color="rgb(51.785278%, 65.185547%, 38.072205%)" offset="0.441406"/><stop stop-opacity="1" stop-color="rgb(51.983643%, 65.370178%, 38.217163%)" offset="0.445313"/><stop stop-opacity="1" stop-color="rgb(52.182007%, 65.55481%, 38.362122%)" offset="0.449219"/><stop stop-opacity="1" stop-color="rgb(52.380371%, 65.739441%, 38.50708%)" offset="0.453125"/><stop stop-opacity="1" stop-color="rgb(52.577209%, 65.922546%, 38.652039%)" offset="0.457031"/><stop stop-opacity="1" stop-color="rgb(52.775574%, 66.107178%, 38.796997%)" offset="0.460937"/><stop stop-opacity="1" stop-color="rgb(52.972412%, 66.290283%, 38.941956%)" offset="0.464844"/><stop stop-opacity="1" stop-color="rgb(53.170776%, 66.474915%, 39.086914%)" offset="0.46875"/><stop stop-opacity="1" stop-color="rgb(53.369141%, 66.65802%, 39.231873%)" offset="0.472656"/><stop stop-opacity="1" stop-color="rgb(53.567505%, 66.842651%, 39.376831%)" offset="0.476562"/><stop stop-opacity="1" stop-color="rgb(53.764343%, 67.025757%, 39.52179%)" offset="0.480469"/><stop stop-opacity="1" stop-color="rgb(53.962708%, 67.210388%, 39.666748%)" offset="0.484375"/><stop stop-opacity="1" stop-color="rgb(54.161072%, 67.393494%, 39.811707%)" offset="0.488281"/><stop stop-opacity="1" stop-color="rgb(54.359436%, 67.578125%, 39.956665%)" offset="0.492188"/><stop stop-opacity="1" stop-color="rgb(54.556274%, 67.76123%, 40.101624%)" offset="0.496094"/><stop stop-opacity="1" stop-color="rgb(54.754639%, 67.945862%, 40.246582%)" offset="0.5"/><stop stop-opacity="1" stop-color="rgb(54.953003%, 68.130493%, 40.391541%)" offset="0.503906"/><stop stop-opacity="1" stop-color="rgb(55.151367%, 68.315125%, 40.536499%)" offset="0.507812"/><stop stop-opacity="1" stop-color="rgb(55.348206%, 68.49823%, 40.681458%)" offset="0.511719"/><stop stop-opacity="1" stop-color="rgb(55.54657%, 68.682861%, 40.826416%)" offset="0.515625"/><stop stop-opacity="1" stop-color="rgb(55.743408%, 68.865967%, 40.971375%)" offset="0.519531"/><stop stop-opacity="1" stop-color="rgb(55.941772%, 69.050598%, 41.116333%)" offset="0.523438"/><stop stop-opacity="1" stop-color="rgb(56.140137%, 69.233704%, 41.261292%)" offset="0.527344"/><stop stop-opacity="1" stop-color="rgb(56.338501%, 69.418335%, 41.40625%)" offset="0.53125"/><stop stop-opacity="1" stop-color="rgb(56.535339%, 69.60144%, 41.551208%)" offset="0.535156"/><stop stop-opacity="1" stop-color="rgb(56.733704%, 69.786072%, 41.696167%)" offset="0.539062"/><stop stop-opacity="1" stop-color="rgb(56.932068%, 69.969177%, 41.841125%)" offset="0.542969"/><stop stop-opacity="1" stop-color="rgb(57.130432%, 70.153809%, 41.986084%)" offset="0.546875"/><stop stop-opacity="1" stop-color="rgb(57.327271%, 70.336914%, 42.131042%)" offset="0.550781"/><stop stop-opacity="1" stop-color="rgb(57.525635%, 70.521545%, 42.276001%)" offset="0.554688"/><stop stop-opacity="1" stop-color="rgb(57.722473%, 70.706177%, 42.420959%)" offset="0.558594"/><stop stop-opacity="1" stop-color="rgb(57.920837%, 70.890808%, 42.565918%)" offset="0.5625"/><stop stop-opacity="1" stop-color="rgb(58.119202%, 71.073914%, 42.710876%)" offset="0.566406"/><stop stop-opacity="1" stop-color="rgb(58.317566%, 71.258545%, 42.855835%)" offset="0.570312"/><stop stop-opacity="1" stop-color="rgb(58.514404%, 71.44165%, 43.000793%)" offset="0.574219"/><stop stop-opacity="1" stop-color="rgb(58.712769%, 71.626282%, 43.145752%)" offset="0.578125"/><stop stop-opacity="1" stop-color="rgb(58.911133%, 71.809387%, 43.29071%)" offset="0.582031"/><stop stop-opacity="1" stop-color="rgb(59.109497%, 71.994019%, 43.435669%)" offset="0.585938"/><stop stop-opacity="1" stop-color="rgb(59.306335%, 72.177124%, 43.580627%)" offset="0.589844"/><stop stop-opacity="1" stop-color="rgb(59.5047%, 72.361755%, 43.725586%)" offset="0.59375"/><stop stop-opacity="1" stop-color="rgb(59.701538%, 72.544861%, 43.870544%)" offset="0.597656"/><stop stop-opacity="1" stop-color="rgb(59.899902%, 72.729492%, 44.015503%)" offset="0.601562"/><stop stop-opacity="1" stop-color="rgb(60.098267%, 72.912598%, 44.160461%)" offset="0.605469"/><stop stop-opacity="1" stop-color="rgb(60.296631%, 73.097229%, 44.30542%)" offset="0.609375"/><stop stop-opacity="1" stop-color="rgb(60.493469%, 73.28186%, 44.450378%)" offset="0.613281"/><stop stop-opacity="1" stop-color="rgb(60.691833%, 73.466492%, 44.595337%)" offset="0.617188"/><stop stop-opacity="1" stop-color="rgb(60.890198%, 73.649597%, 44.740295%)" offset="0.621094"/><stop stop-opacity="1" stop-color="rgb(61.088562%, 73.834229%, 44.885254%)" offset="0.625"/><stop stop-opacity="1" stop-color="rgb(61.2854%, 74.017334%, 45.030212%)" offset="0.628906"/><stop stop-opacity="1" stop-color="rgb(61.483765%, 74.201965%, 45.175171%)" offset="0.632812"/><stop stop-opacity="1" stop-color="rgb(61.680603%, 74.385071%, 45.320129%)" offset="0.636719"/><stop stop-opacity="1" stop-color="rgb(61.878967%, 74.569702%, 45.465088%)" offset="0.640625"/><stop stop-opacity="1" stop-color="rgb(62.077332%, 74.752808%, 45.610046%)" offset="0.644531"/><stop stop-opacity="1" stop-color="rgb(62.275696%, 74.937439%, 45.755005%)" offset="0.648438"/><stop stop-opacity="1" stop-color="rgb(62.472534%, 75.120544%, 45.899963%)" offset="0.652344"/><stop stop-opacity="1" stop-color="rgb(62.670898%, 75.305176%, 46.044922%)" offset="0.65625"/><stop stop-opacity="1" stop-color="rgb(62.869263%, 75.488281%, 46.18988%)" offset="0.660156"/><stop stop-opacity="1" stop-color="rgb(63.067627%, 75.672913%, 46.334839%)" offset="0.664062"/><stop stop-opacity="1" stop-color="rgb(63.264465%, 75.857544%, 46.479797%)" offset="0.667969"/><stop stop-opacity="1" stop-color="rgb(63.46283%, 76.042175%, 46.624756%)" offset="0.671875"/><stop stop-opacity="1" stop-color="rgb(63.659668%, 76.225281%, 46.769714%)" offset="0.675781"/><stop stop-opacity="1" stop-color="rgb(63.858032%, 76.409912%, 46.914673%)" offset="0.679687"/><stop stop-opacity="1" stop-color="rgb(64.056396%, 76.593018%, 47.059631%)" offset="0.683594"/><stop stop-opacity="1" stop-color="rgb(64.254761%, 76.777649%, 47.20459%)" offset="0.6875"/><stop stop-opacity="1" stop-color="rgb(64.451599%, 76.960754%, 47.349548%)" offset="0.691406"/><stop stop-opacity="1" stop-color="rgb(64.649963%, 77.145386%, 47.494507%)" offset="0.695312"/><stop stop-opacity="1" stop-color="rgb(64.848328%, 77.328491%, 47.639465%)" offset="0.699219"/><stop stop-opacity="1" stop-color="rgb(65.046692%, 77.513123%, 47.784424%)" offset="0.703125"/><stop stop-opacity="1" stop-color="rgb(65.24353%, 77.696228%, 47.929382%)" offset="0.707031"/><stop stop-opacity="1" stop-color="rgb(65.441895%, 77.880859%, 48.074341%)" offset="0.710938"/><stop stop-opacity="1" stop-color="rgb(65.640259%, 78.063965%, 48.219299%)" offset="0.714844"/><stop stop-opacity="1" stop-color="rgb(65.838623%, 78.248596%, 48.364258%)" offset="0.71875"/><stop stop-opacity="1" stop-color="rgb(66.035461%, 78.433228%, 48.509216%)" offset="0.722656"/><stop stop-opacity="1" stop-color="rgb(66.233826%, 78.617859%, 48.654175%)" offset="0.726562"/><stop stop-opacity="1" stop-color="rgb(66.430664%, 78.800964%, 48.799133%)" offset="0.730469"/><stop stop-opacity="1" stop-color="rgb(66.629028%, 78.985596%, 48.944092%)" offset="0.734375"/><stop stop-opacity="1" stop-color="rgb(66.827393%, 79.168701%, 49.08905%)" offset="0.738281"/><stop stop-opacity="1" stop-color="rgb(67.025757%, 79.353333%, 49.234009%)" offset="0.742188"/><stop stop-opacity="1" stop-color="rgb(67.222595%, 79.536438%, 49.378967%)" offset="0.746094"/><stop stop-opacity="1" stop-color="rgb(67.420959%, 79.721069%, 49.523926%)" offset="0.75"/><stop stop-opacity="1" stop-color="rgb(67.619324%, 79.904175%, 49.668884%)" offset="0.753906"/><stop stop-opacity="1" stop-color="rgb(67.817688%, 80.088806%, 49.813843%)" offset="0.757812"/><stop stop-opacity="1" stop-color="rgb(68.014526%, 80.271912%, 49.957275%)" offset="0.761719"/><stop stop-opacity="1" stop-color="rgb(68.212891%, 80.456543%, 50.102234%)" offset="0.765625"/><stop stop-opacity="1" stop-color="rgb(68.409729%, 80.639648%, 50.247192%)" offset="0.769531"/><stop stop-opacity="1" stop-color="rgb(68.608093%, 80.82428%, 50.392151%)" offset="0.773438"/><stop stop-opacity="1" stop-color="rgb(68.806458%, 81.008911%, 50.537109%)" offset="0.777344"/><stop stop-opacity="1" stop-color="rgb(69.004822%, 81.193542%, 50.682068%)" offset="0.78125"/><stop stop-opacity="1" stop-color="rgb(69.20166%, 81.376648%, 50.827026%)" offset="0.785156"/><stop stop-opacity="1" stop-color="rgb(69.400024%, 81.561279%, 50.971985%)" offset="0.789062"/><stop stop-opacity="1" stop-color="rgb(69.404602%, 81.564331%, 50.975037%)" offset="0.796875"/><stop stop-opacity="1" stop-color="rgb(69.40918%, 81.568909%, 50.979614%)" offset="0.8125"/><stop stop-opacity="1" stop-color="rgb(69.40918%, 81.568909%, 50.979614%)" offset="0.875"/><stop stop-opacity="1" stop-color="rgb(69.40918%, 81.568909%, 50.979614%)" offset="0.969725"/><stop stop-opacity="1" stop-color="rgb(69.40918%, 81.568909%, 50.979614%)" offset="1"/></linearGradient><clipPath id="860a36ef3c"><path d="M 0.914062 28 L 190 28 L 190 100 L 0.914062 100 Z M 0.914062 28 " clip-rule="nonzero"/></clipPath><clipPath id="4915c447f9"><rect x="0" width="190" y="0" height="72"/></clipPath><clipPath id="eece3f787b"><path d="M 53 20.328125 L 71.441406 20.328125 L 71.441406 52.863281 L 53 52.863281 Z M 53 20.328125 " clip-rule="nonzero"/></clipPath><clipPath id="334f278d18"><path d="M 38.234375 22 L 53 22 L 53 47 L 38.234375 47 Z M 38.234375 22 " clip-rule="nonzero"/></clipPath><clipPath id="a464b8f81e"><path d="M 41.59375 22.300781 C 41.28125 23.863281 42.0625 25.472656 43.1875 26.59375 C 44.308594 27.71875 45.746094 28.464844 47.117188 29.269531 C 48.492188 30.074219 49.859375 30.984375 50.726562 32.324219 C 51.476562 33.484375 51.78125 34.875 51.941406 36.253906 C 52.128906 37.917969 52.105469 39.667969 51.574219 41.238281 C 51.1875 40.292969 50.6875 39.386719 50.113281 38.542969 C 48.992188 36.878906 47.609375 35.40625 46.230469 33.949219 C 44.621094 32.242188 43.015625 30.535156 41.40625 28.828125 C 43.070312 31.949219 45.652344 34.460938 47.835938 37.25 C 50.015625 40.035156 51.875 43.359375 51.671875 46.890625 C 51.507812 45.085938 50.042969 43.648438 48.453125 42.777344 C 46.863281 41.902344 45.078125 41.417969 43.507812 40.503906 C 40.542969 38.769531 38.550781 35.480469 38.394531 32.050781 C 38.238281 28.582031 39.820312 25.289062 41.59375 22.300781 Z M 41.59375 22.300781 " clip-rule="nonzero"/></clipPath><linearGradient x1="-1204.20996" gradientTransform="matrix(-0.0323748, 0, 0, 0.0323748, 6.229742, 20.327487)" y1="61" x2="-1204.20996" gradientUnits="userSpaceOnUse" y2="820.50006" id="150389bb4a"><stop stop-opacity="1" stop-color="rgb(53.50647%, 74.847412%, 25.752258%)" offset="0"/><stop stop-opacity="1" stop-color="rgb(53.416443%, 74.743652%, 25.744629%)" offset="0.125"/><stop stop-opacity="1" stop-color="rgb(53.236389%, 74.534607%, 25.727844%)" offset="0.25"/><stop stop-opacity="1" stop-color="rgb(53.057861%, 74.325562%, 25.71106%)" offset="0.375"/><stop stop-opacity="1" stop-color="rgb(52.877808%, 74.118042%, 25.695801%)" offset="0.5"/><stop stop-opacity="1" stop-color="rgb(52.69928%, 73.908997%, 25.679016%)" offset="0.625"/><stop stop-opacity="1" stop-color="rgb(52.520752%, 73.701477%, 25.662231%)" offset="0.75"/><stop stop-opacity="1" stop-color="rgb(52.340698%, 73.492432%, 25.646973%)" offset="0.875"/><stop stop-opacity="1" stop-color="rgb(52.16217%, 73.283386%, 25.630188%)" offset="1"/></linearGradient><clipPath id="8123749c19"><rect x="0" width="212" y="0" height="130"/></clipPath></defs><g clip-path="url(#597715a4a3)"><g transform="matrix(1, 0, 0, 1, 13, 48)"><g clip-path="url(#8123749c19)"><g clip-path="url(#13e8e3e639)"><g clip-path="url(#1782db4be5)"><path fill="url(#8d951cd729)" d="M 84.480469 1.523438 L 84.480469 127.308594 L 210.492188 127.308594 L 210.492188 1.523438 Z M 84.480469 1.523438 " fill-rule="nonzero"/></g></g><g clip-path="url(#860a36ef3c)"><g transform="matrix(1, 0, 0, 1, 0.000000000000001776, 28)"><g clip-path="url(#4915c447f9)"><g fill="#ffffff" fill-opacity="1"><g transform="translate(1.442521, 51.432779)"><g><path d="M 20.578125 -47.5 C 23.109375 -47.5 25.578125 -47.128906 27.984375 -46.390625 C 30.398438 -45.660156 32.191406 -44.9375 33.359375 -44.21875 L 35.0625 -43.09375 L 30.765625 -34.609375 C 30.421875 -34.835938 29.945312 -35.128906 29.34375 -35.484375 C 28.738281 -35.835938 27.609375 -36.316406 25.953125 -36.921875 C 24.296875 -37.523438 22.75 -37.828125 21.3125 -37.828125 C 19.539062 -37.828125 18.175781 -37.445312 17.21875 -36.6875 C 16.257812 -35.9375 15.78125 -34.921875 15.78125 -33.640625 C 15.78125 -33.003906 16.003906 -32.410156 16.453125 -31.859375 C 16.910156 -31.316406 17.679688 -30.734375 18.765625 -30.109375 C 19.859375 -29.484375 20.820312 -28.984375 21.65625 -28.609375 C 22.488281 -28.234375 23.769531 -27.671875 25.5 -26.921875 C 28.519531 -25.640625 31.09375 -23.894531 33.21875 -21.6875 C 35.351562 -19.476562 36.421875 -16.976562 36.421875 -14.1875 C 36.421875 -11.507812 35.9375 -9.171875 34.96875 -7.171875 C 34.007812 -5.179688 32.691406 -3.617188 31.015625 -2.484375 C 29.335938 -1.359375 27.476562 -0.523438 25.4375 0.015625 C 23.40625 0.566406 21.203125 0.84375 18.828125 0.84375 C 16.796875 0.84375 14.796875 0.632812 12.828125 0.21875 C 10.867188 -0.1875 9.226562 -0.703125 7.90625 -1.328125 C 6.59375 -1.953125 5.40625 -2.566406 4.34375 -3.171875 C 3.289062 -3.773438 2.519531 -4.28125 2.03125 -4.6875 L 1.296875 -5.3125 L 6.609375 -14.25 C 7.066406 -13.875 7.691406 -13.394531 8.484375 -12.8125 C 9.273438 -12.226562 10.675781 -11.441406 12.6875 -10.453125 C 14.707031 -9.472656 16.488281 -8.984375 18.03125 -8.984375 C 22.519531 -8.984375 24.765625 -10.515625 24.765625 -13.578125 C 24.765625 -14.210938 24.601562 -14.800781 24.28125 -15.34375 C 23.96875 -15.894531 23.40625 -16.441406 22.59375 -16.984375 C 21.78125 -17.535156 21.0625 -17.972656 20.4375 -18.296875 C 19.820312 -18.617188 18.804688 -19.109375 17.390625 -19.765625 C 15.972656 -20.421875 14.925781 -20.921875 14.25 -21.265625 C 11.425781 -22.660156 9.238281 -24.398438 7.6875 -26.484375 C 6.144531 -28.578125 5.375 -30.832031 5.375 -33.25 C 5.375 -37.4375 6.914062 -40.859375 10 -43.515625 C 13.09375 -46.171875 16.617188 -47.5 20.578125 -47.5 Z M 20.578125 -47.5 "/></g></g></g><g fill="#ffffff" fill-opacity="1"><g transform="translate(34.634565, 51.432779)"><g><path d="M 12.84375 -29.015625 L 12.84375 -15.21875 C 12.84375 -12.34375 13.273438 -10.300781 14.140625 -9.09375 C 15.003906 -7.894531 16.472656 -7.296875 18.546875 -7.296875 C 20.617188 -7.296875 22.085938 -7.894531 22.953125 -9.09375 C 23.828125 -10.300781 24.265625 -12.34375 24.265625 -15.21875 L 24.265625 -29.015625 L 34.265625 -29.015625 L 34.265625 -12.78125 C 34.265625 -7.957031 33.007812 -4.476562 30.5 -2.34375 C 28 -0.21875 24.015625 0.84375 18.546875 0.84375 C 13.078125 0.84375 9.085938 -0.21875 6.578125 -2.34375 C 4.078125 -4.476562 2.828125 -7.957031 2.828125 -12.78125 L 2.828125 -29.015625 Z M 12.84375 -29.015625 "/></g></g></g><g fill="#ffffff" fill-opacity="1"><g transform="translate(66.921861, 51.432779)"><g><path d="M 16 -29.859375 C 17.65625 -29.859375 19.296875 -29.664062 20.921875 -29.28125 C 22.546875 -28.90625 23.753906 -28.53125 24.546875 -28.15625 L 25.734375 -27.59375 L 22.453125 -21.03125 C 20.191406 -22.238281 18.039062 -22.84375 16 -22.84375 C 14.875 -22.84375 14.070312 -22.71875 13.59375 -22.46875 C 13.125 -22.226562 12.890625 -21.769531 12.890625 -21.09375 C 12.890625 -20.9375 12.90625 -20.78125 12.9375 -20.625 C 12.976562 -20.476562 13.054688 -20.335938 13.171875 -20.203125 C 13.285156 -20.078125 13.390625 -19.96875 13.484375 -19.875 C 13.578125 -19.78125 13.738281 -19.675781 13.96875 -19.5625 C 14.195312 -19.445312 14.375 -19.359375 14.5 -19.296875 C 14.632812 -19.242188 14.851562 -19.160156 15.15625 -19.046875 C 15.457031 -18.941406 15.679688 -18.859375 15.828125 -18.796875 C 15.984375 -18.742188 16.238281 -18.660156 16.59375 -18.546875 C 16.957031 -18.429688 17.234375 -18.359375 17.421875 -18.328125 C 18.585938 -17.984375 19.601562 -17.601562 20.46875 -17.1875 C 21.332031 -16.769531 22.242188 -16.203125 23.203125 -15.484375 C 24.171875 -14.773438 24.914062 -13.875 25.4375 -12.78125 C 25.96875 -11.6875 26.234375 -10.441406 26.234375 -9.046875 C 26.234375 -2.453125 21.65625 0.84375 12.5 0.84375 C 10.425781 0.84375 8.453125 0.523438 6.578125 -0.109375 C 4.710938 -0.753906 3.367188 -1.394531 2.546875 -2.03125 L 1.296875 -3.046875 L 5.375 -9.890625 C 5.675781 -9.628906 6.070312 -9.316406 6.5625 -8.953125 C 7.050781 -8.597656 7.9375 -8.109375 9.21875 -7.484375 C 10.5 -6.867188 11.609375 -6.5625 12.546875 -6.5625 C 14.617188 -6.5625 15.65625 -7.257812 15.65625 -8.65625 C 15.65625 -9.289062 15.390625 -9.785156 14.859375 -10.140625 C 14.335938 -10.503906 13.445312 -10.910156 12.1875 -11.359375 C 10.925781 -11.816406 9.9375 -12.234375 9.21875 -12.609375 C 7.40625 -13.554688 5.972656 -14.625 4.921875 -15.8125 C 3.867188 -17 3.34375 -18.570312 3.34375 -20.53125 C 3.34375 -23.46875 4.476562 -25.753906 6.75 -27.390625 C 9.03125 -29.035156 12.113281 -29.859375 16 -29.859375 Z M 16 -29.859375 "/></g></g></g><g fill="#ffffff" fill-opacity="1"><g transform="translate(89.935574, 51.432779)"><g><path d="M 5.09375 -29.015625 L 5.09375 -39.8125 L 15.09375 -39.8125 L 15.09375 -29.015625 L 21.203125 -29.015625 L 21.203125 -21.375 L 15.09375 -21.375 L 15.09375 -12.15625 C 15.09375 -9.476562 15.847656 -8.140625 17.359375 -8.140625 C 17.734375 -8.140625 18.128906 -8.210938 18.546875 -8.359375 C 18.960938 -8.515625 19.285156 -8.671875 19.515625 -8.828125 L 19.84375 -9.046875 L 22.34375 -0.96875 C 20.1875 0.238281 17.734375 0.84375 14.984375 0.84375 C 13.097656 0.84375 11.476562 0.515625 10.125 -0.140625 C 8.769531 -0.796875 7.742188 -1.679688 7.046875 -2.796875 C 6.347656 -3.910156 5.847656 -5.078125 5.546875 -6.296875 C 5.242188 -7.523438 5.09375 -8.835938 5.09375 -10.234375 L 5.09375 -21.375 L 0.90625 -21.375 L 0.90625 -29.015625 Z M 5.09375 -29.015625 "/></g></g></g><g fill="#ffffff" fill-opacity="1"><g transform="translate(107.464314, 51.432779)"><g><path d="M 5.359375 -3.59375 C 2.648438 -6.550781 1.296875 -10.175781 1.296875 -14.46875 C 1.296875 -18.769531 2.648438 -22.410156 5.359375 -25.390625 C 8.078125 -28.367188 11.53125 -29.859375 15.71875 -29.859375 C 19.5625 -29.859375 22.726562 -28.648438 25.21875 -26.234375 L 25.21875 -29.015625 L 35.234375 -29.015625 L 35.234375 0 L 25.328125 0 L 25.328125 -3.28125 L 25.21875 -3.28125 C 22.726562 -0.53125 19.5625 0.84375 15.71875 0.84375 C 11.53125 0.84375 8.078125 -0.632812 5.359375 -3.59375 Z M 13.875 -19.390625 C 12.582031 -18.109375 11.9375 -16.46875 11.9375 -14.46875 C 11.9375 -12.476562 12.554688 -10.847656 13.796875 -9.578125 C 15.035156 -8.316406 16.675781 -7.6875 18.71875 -7.6875 C 20.675781 -7.6875 22.285156 -8.328125 23.546875 -9.609375 C 24.816406 -10.890625 25.453125 -12.507812 25.453125 -14.46875 C 25.453125 -16.46875 24.800781 -18.109375 23.5 -19.390625 C 22.195312 -20.671875 20.601562 -21.3125 18.71875 -21.3125 C 16.789062 -21.3125 15.175781 -20.671875 13.875 -19.390625 Z M 13.875 -19.390625 "/></g></g></g><g fill="#ffffff" fill-opacity="1"><g transform="translate(141.27836, 51.432779)"><g><path d="M 4.34375 -45.171875 C 5.519531 -46.347656 6.914062 -46.9375 8.53125 -46.9375 C 10.15625 -46.9375 11.550781 -46.347656 12.71875 -45.171875 C 13.882812 -44.003906 14.46875 -42.609375 14.46875 -40.984375 C 14.46875 -39.367188 13.882812 -37.976562 12.71875 -36.8125 C 11.550781 -35.644531 10.15625 -35.0625 8.53125 -35.0625 C 6.914062 -35.0625 5.519531 -35.644531 4.34375 -36.8125 C 3.175781 -37.976562 2.59375 -39.367188 2.59375 -40.984375 C 2.59375 -42.609375 3.175781 -44.003906 4.34375 -45.171875 Z M 3.390625 -29.015625 L 3.390625 0 L 13.40625 0 L 13.40625 -29.015625 Z M 3.390625 -29.015625 "/></g></g></g><g fill="#ffffff" fill-opacity="1"><g transform="translate(153.548295, 51.432779)"><g><path d="M 3.390625 0 L 3.390625 -29.015625 L 13.40625 -29.015625 L 13.40625 -25.953125 L 13.515625 -25.953125 C 16.117188 -28.554688 18.890625 -29.859375 21.828125 -29.859375 C 23.253906 -29.859375 24.675781 -29.664062 26.09375 -29.28125 C 27.507812 -28.90625 28.867188 -28.320312 30.171875 -27.53125 C 31.472656 -26.738281 32.523438 -25.617188 33.328125 -24.171875 C 34.140625 -22.722656 34.546875 -21.035156 34.546875 -19.109375 L 34.546875 0 L 24.546875 0 L 24.546875 -16.40625 C 24.546875 -17.90625 24.0625 -19.21875 23.09375 -20.34375 C 22.132812 -21.476562 20.882812 -22.046875 19.34375 -22.046875 C 17.832031 -22.046875 16.460938 -21.460938 15.234375 -20.296875 C 14.015625 -19.128906 13.40625 -17.832031 13.40625 -16.40625 L 13.40625 0 Z M 3.390625 0 "/></g></g></g></g></g></g><g clip-path="url(#eece3f787b)"><path fill="#8cc342" d="M 66.929688 20.328125 C 67.339844 22.386719 66.3125 24.511719 64.828125 25.992188 C 63.34375 27.480469 61.449219 28.464844 59.636719 29.523438 C 57.824219 30.582031 56.015625 31.789062 54.878906 33.550781 C 53.886719 35.085938 53.484375 36.925781 53.277344 38.738281 C 53.019531 40.941406 53.054688 43.25 53.753906 45.320312 C 54.261719 44.070312 54.925781 42.875 55.679688 41.757812 C 57.160156 39.5625 58.988281 37.621094 60.804688 35.691406 C 62.925781 33.4375 65.046875 31.1875 67.171875 28.9375 C 64.972656 33.054688 61.566406 36.375 58.691406 40.050781 C 55.8125 43.726562 53.359375 48.117188 53.625 52.78125 C 53.839844 50.394531 55.777344 48.5 57.878906 47.347656 C 59.976562 46.195312 62.332031 45.550781 64.402344 44.347656 C 68.316406 42.066406 70.945312 37.722656 71.152344 33.195312 C 71.359375 28.617188 69.269531 24.265625 66.929688 20.328125 Z M 66.929688 20.328125 " fill-opacity="1" fill-rule="nonzero"/></g><g clip-path="url(#334f278d18)"><g clip-path="url(#a464b8f81e)"><path fill="url(#150389bb4a)" d="M 52.128906 22.300781 L 52.128906 46.890625 L 38.238281 46.890625 L 38.238281 22.300781 Z M 52.128906 22.300781 " fill-rule="nonzero"/></g></g><g fill="#ffffff" fill-opacity="1"><g transform="translate(51.65623, 101.909857)"><g><path d="M 4.40625 -5.359375 C 2.09375 -5.890625 0.9375 -6.875 0.9375 -8.3125 C 0.9375 -9.382812 1.304688 -10.1875 2.046875 -10.71875 C 2.796875 -11.238281 3.671875 -11.5 4.671875 -11.5 C 6.878906 -11.5 8.191406 -10.675781 8.609375 -9.03125 L 7.328125 -9.03125 C 7.109375 -10.007812 6.222656 -10.5 4.671875 -10.5 C 3.578125 -10.5 2.816406 -10.175781 2.390625 -9.53125 C 2.222656 -9.289062 2.140625 -8.988281 2.140625 -8.625 C 2.140625 -7.914062 2.515625 -7.375 3.265625 -7 C 3.617188 -6.8125 4.375 -6.566406 5.53125 -6.265625 C 6.6875 -5.960938 7.523438 -5.628906 8.046875 -5.265625 C 8.773438 -4.753906 9.140625 -4.039062 9.140625 -3.125 C 9.140625 -1.976562 8.6875 -1.109375 7.78125 -0.515625 C 7.03125 -0.0234375 6.097656 0.21875 4.984375 0.21875 C 2.472656 0.21875 1.015625 -0.738281 0.609375 -2.65625 L 2 -2.65625 C 2.207031 -1.445312 3.203125 -0.84375 4.984375 -0.84375 C 6.253906 -0.84375 7.140625 -1.195312 7.640625 -1.90625 C 7.835938 -2.175781 7.9375 -2.550781 7.9375 -3.03125 C 7.9375 -3.5 7.753906 -3.882812 7.390625 -4.1875 C 6.867188 -4.601562 5.875 -4.992188 4.40625 -5.359375 Z M 4.40625 -5.359375 "/></g></g></g><g fill="#ffffff" fill-opacity="1"><g transform="translate(61.225815, 101.909857)"><g><path d="M 2.1875 4.171875 L 0.765625 4.171875 L 3.234375 -1.203125 L 0.171875 -7.328125 L 1.5 -7.328125 L 3.84375 -2.421875 L 5.953125 -7.328125 L 7.25 -7.328125 Z M 2.1875 4.171875 "/></g></g></g><g fill="#ffffff" fill-opacity="1"><g transform="translate(68.31131, 101.909857)"><g><path d="M 6.3125 0 L 6.3125 -4.578125 C 6.3125 -5.054688 6.207031 -5.46875 6 -5.8125 C 5.78125 -6.144531 5.421875 -6.3125 4.921875 -6.3125 C 4.421875 -6.3125 4.015625 -6.21875 3.703125 -6.03125 C 3.390625 -5.84375 3.140625 -5.597656 2.953125 -5.296875 C 2.597656 -4.742188 2.421875 -4 2.421875 -3.0625 L 2.421875 0 L 1.25 0 L 1.25 -7.328125 L 2.421875 -7.328125 L 2.421875 -6.0625 C 2.660156 -6.476562 2.96875 -6.816406 3.34375 -7.078125 C 3.75 -7.347656 4.210938 -7.484375 4.734375 -7.484375 C 5.253906 -7.484375 5.675781 -7.410156 6 -7.265625 C 6.320312 -7.109375 6.59375 -6.90625 6.8125 -6.65625 C 7.257812 -6.132812 7.484375 -5.441406 7.484375 -4.578125 L 7.484375 0 Z M 6.3125 0 "/></g></g></g><g fill="#ffffff" fill-opacity="1"><g transform="translate(76.797233, 101.909857)"><g><path d="M 8.109375 -4.703125 L 6.828125 -4.703125 C 6.628906 -5.171875 6.320312 -5.546875 5.90625 -5.828125 C 5.476562 -6.117188 5.050781 -6.265625 4.625 -6.265625 C 4.1875 -6.265625 3.8125 -6.195312 3.5 -6.0625 C 3.1875 -5.925781 2.921875 -5.738281 2.703125 -5.5 C 2.203125 -4.976562 1.953125 -4.367188 1.953125 -3.671875 C 1.953125 -2.953125 2.203125 -2.335938 2.703125 -1.828125 C 3.191406 -1.304688 3.789062 -1.046875 4.5 -1.046875 C 4.96875 -1.046875 5.398438 -1.171875 5.796875 -1.421875 C 6.191406 -1.660156 6.5 -1.988281 6.71875 -2.40625 L 8.03125 -2.40625 C 7.625 -1.226562 6.832031 -0.4375 5.65625 -0.03125 C 5.289062 0.101562 4.875 0.171875 4.40625 0.171875 C 3.9375 0.171875 3.472656 0.0625 3.015625 -0.15625 C 2.554688 -0.351562 2.160156 -0.628906 1.828125 -0.984375 C 1.109375 -1.742188 0.75 -2.640625 0.75 -3.671875 C 0.75 -4.710938 1.109375 -5.609375 1.828125 -6.359375 C 2.566406 -7.109375 3.457031 -7.484375 4.5 -7.484375 C 5.34375 -7.484375 6.101562 -7.222656 6.78125 -6.703125 C 7.425781 -6.203125 7.867188 -5.535156 8.109375 -4.703125 Z M 8.109375 -4.703125 "/></g></g></g><g fill="#ffffff" fill-opacity="1"><g transform="translate(85.487157, 101.909857)"><g/></g></g><g fill="#ffffff" fill-opacity="1"><g transform="translate(89.988532, 101.909857)"><g/></g></g><g fill="#ffffff" fill-opacity="1"><g transform="translate(94.489906, 101.909857)"><g/></g></g></g></g></g></svg>